<svg xmlns="http://www.w3.org/2000/svg" xml:space="preserve" id="Capa_1" x="0" y="0" style="enable-background:new 0 0 100 100" version="1.1" viewBox="0 0 100 100"><style>.st0{fill:#fff}</style><path d="M40 91.3v-5.4h-7V14.1h7V8.7c0-2.4.9-3.6 2.6-3.7H46V3.6H8.1V5h3.3C13.2 5 14 6.3 14 9v82.1c0 2.6-.9 4-2.6 4H8.1v1.3H46V95h-3.3c-1.8 0-2.7-1.3-2.7-3.7zM88.6 5h3.3V3.6H54V5h3.3c1.8.1 2.6 1.4 2.6 4v5.1H67v71.8h-7V91c0 2.6-.9 3.9-2.6 4H54v1.3h37.9V95h-3.3c-1.8 0-2.6-1.2-2.6-3.7V8.7c0-2.5.8-3.7 2.6-3.7z" class="st0"/><path d="M36.6 82.4V17.6h8.5v27.1h9.8V17.6h8.5v64.8h-8.5V51.8h-9.8v30.6h-8.5z" class="st0"/></svg>