<?xml version="1.0" encoding="UTF-8"?><svg id="Layer_2" xmlns="http://www.w3.org/2000/svg" viewBox="0 0 995.47 902.82"><defs><style>.cls-8{fill:#0062c0;}</style></defs><g id="Capa_1"><g><g><path d="M472.46,311.66h-22.82c-1.88,0-3.41-1.53-3.41-3.41s1.53-3.41,3.41-3.41h22.82c1.88,0,3.41,1.53,3.41,3.41s-1.53,3.41-3.41,3.41Z"/><path d="M405.87,311.66H148.91c-16.87,0-30.59-13.72-30.59-30.59V30.59c0-16.87,13.72-30.59,30.59-30.59H506.08c16.87,0,30.59,13.72,30.59,30.59v125.24c0,1.88-1.53,3.41-3.41,3.41s-3.41-1.53-3.41-3.41V30.59c0-13.1-10.66-23.77-23.77-23.77H148.91c-13.11,0-23.77,10.66-23.77,23.77v250.48c0,13.1,10.66,23.77,23.77,23.77H405.87c1.88,0,3.41,1.53,3.41,3.41s-1.53,3.41-3.41,3.41Z"/><path d="M533.26,54.73H121.73c-1.88,0-3.41-1.53-3.41-3.41s1.53-3.41,3.41-3.41h411.52c1.88,0,3.41,1.53,3.41,3.41s-1.53,3.41-3.41,3.41Z"/><circle cx="151.13" cy="28.45" r="8.57"/><circle cx="180.52" cy="28.45" r="8.57"/><circle cx="212.91" cy="28.45" r="8.57"/><path d="M427.75,334.2c-13.95,0-25.3-11.35-25.3-25.3s11.35-25.3,25.3-25.3,25.3,11.35,25.3,25.3-11.35,25.3-25.3,25.3Zm0-43.77c-10.18,0-18.47,8.29-18.47,18.47s8.29,18.47,18.47,18.47,18.47-8.29,18.47-18.47-8.29-18.47-18.47-18.47Z"/><path d="M270.64,312.31c-.32,0-.64-.04-.96-.14-1.81-.53-2.84-2.43-2.31-4.24,10.86-36.99,11.16-51.32-10.94-106.93l-39.09-75.6c-9.4-5.01-15.41-14.94-15.41-25.61,0-16.01,13.03-29.04,29.04-29.04s29.04,13.03,29.04,29.04c0,3.93-.78,7.73-2.31,11.32l35.89,50.02c3.55,4.95,7.6,9.48,12.06,13.53-4.67-8.49-7.09-18.24-6.77-28.45,.88-28.16,23.58-51.59,51.67-53.33,15.41-.98,30.11,4.31,41.33,14.86,11.07,10.4,17.41,25.07,17.41,40.25,0,21.9-13.18,41.44-32.37,50.25l.3,.05c.08,.01,.16,.03,.24,.05,19.28,4.59,34.12,19.41,38.74,38.68l11.83,49.4c.44,1.83-.69,3.67-2.52,4.11-1.85,.45-3.67-.7-4.11-2.52l-11.83-49.4c-4-16.72-16.86-29.59-33.57-33.61l-14.68-2.43c-1.66-.27-2.87-1.71-2.86-3.39s1.24-3.1,2.9-3.35c23.44-3.53,41.12-24.1,41.12-47.85,0-13.5-5.42-26.03-15.26-35.28-9.83-9.24-22.67-13.85-36.24-13.02-24.61,1.53-44.49,22.06-45.27,46.74-.59,18.81,9.42,35.88,26.14,44.54,1.62,.84,2.29,2.79,1.53,4.45-.76,1.65-2.67,2.43-4.37,1.75-16.46-6.57-30.62-17.66-40.95-32.06l-37.05-51.64c-.75-1.04-.85-2.41-.26-3.55,1.63-3.18,2.46-6.58,2.46-10.12,0-12.25-9.96-22.21-22.21-22.21s-22.21,9.96-22.21,22.21c0,8.59,4.83,16.25,12.59,19.99,.67,.32,1.21,.85,1.55,1.51l39.67,76.73c.05,.1,.1,.2,.14,.31,22.95,57.72,22.61,72.67,11.21,111.53-.44,1.49-1.8,2.45-3.27,2.45Z"/></g><g><path d="M946.98,535.59h-14.75c-1.88,0-3.41-1.53-3.41-3.41s1.53-3.41,3.41-3.41h14.75c16.62,0,30.14-13.52,30.14-30.14V230.34c0-1.88,1.53-3.41,3.41-3.41s3.41,1.53,3.41,3.41V498.63c0,20.38-16.58,36.97-36.97,36.97Z"/><path d="M472.46,485.03c-1.88,0-3.41-1.53-3.41-3.41V189.38c0-20.38,16.59-36.97,36.97-36.97h423.3c1.88,0,3.41,1.53,3.41,3.41s-1.53,3.41-3.41,3.41H506.02c-16.62,0-30.14,13.52-30.14,30.14V481.62c0,1.88-1.53,3.41-3.41,3.41Z"/><path d="M696.25,535.59h-121.81c-1.88,0-3.41-1.53-3.41-3.41s1.53-3.41,3.41-3.41h121.81c1.88,0,3.41,1.53,3.41,3.41s-1.53,3.41-3.41,3.41Z"/><path d="M906.59,218.38H472.46c-1.88,0-3.41-1.53-3.41-3.41s1.53-3.41,3.41-3.41h434.13c1.88,0,3.41,1.53,3.41,3.41s-1.53,3.41-3.41,3.41Z"/><circle cx="508.75" cy="186.74" r="10.59"/><circle cx="545.04" cy="186.74" r="10.59"/><circle cx="585.03" cy="186.74" r="10.59"/></g><g><path d="M355.03,485.79h-74.9c-1.88,0-3.41-1.53-3.41-3.41s1.53-3.41,3.41-3.41h74.9c1.88,0,3.41,1.53,3.41,3.41s-1.53,3.41-3.41,3.41Z"/><g><path d="M525.41,854.43H52.45c-28.92,0-52.45-23.53-52.45-52.45v-267.34c0-28.92,23.53-52.45,52.45-52.45h63.77c1.88,0,3.41,1.53,3.41,3.41s-1.53,3.41-3.41,3.41H52.45c-25.16,0-45.62,20.47-45.62,45.62v267.34c0,25.16,20.46,45.62,45.62,45.62h472.96c11.15,0,21.89-4.07,30.23-11.45,1.41-1.25,3.57-1.12,4.82,.29,1.25,1.41,1.12,3.57-.29,4.82-9.59,8.49-21.93,13.17-34.75,13.17Z"/><path d="M574.44,748.43c-1.88,0-3.41-1.53-3.41-3.41v-210.37c0-25.15-20.47-45.62-45.62-45.62h-84.33c-1.88,0-3.41-1.53-3.41-3.41s1.53-3.41,3.41-3.41h84.33c28.92,0,52.45,23.53,52.45,52.45v210.37c0,1.88-1.53,3.41-3.41,3.41Z"/><g><g><path d="M424.62,826.64H188.64c-12.66,0-22.96-10.3-22.96-22.96v-.96c0-12.66,10.3-22.97,22.96-22.97h36.63c3.27,0,6.25-1.66,7.98-4.44l61.19-98.69c4.15-6.69,11.32-10.68,19.18-10.68h182.65c8.31,0,15.68,4.33,19.72,11.6,4.04,7.26,3.84,15.81-.54,22.87l-71.64,115.55c-4.14,6.69-11.32,10.68-19.18,10.68Zm-235.99-40.07c-8.9,0-16.14,7.24-16.14,16.14v.96c0,8.9,7.24,16.14,16.14,16.14h235.99c5.49,0,10.49-2.78,13.38-7.45l71.65-115.56c3.05-4.93,3.19-10.89,.38-15.95-2.82-5.07-7.96-8.09-13.76-8.09h-182.65c-5.49,0-10.49,2.78-13.39,7.45l-61.19,98.69c-2.97,4.8-8.12,7.67-13.78,7.67h-36.63Z"/><path d="M199.1,826.64h-51.82c-23.31,0-42.28-18.97-42.28-42.28v-60.76c0-28.6,10.82-55.63,29.67-74.15,14.2-13.95,31.84-21.79,48.64-21.48h33.53c1.88,0,3.41,1.53,3.41,3.41s-1.53,3.41-3.41,3.41h-33.59c-14.98-.27-30.89,6.85-43.8,19.52-17.56,17.25-27.63,42.5-27.63,69.28v60.76c0,19.55,15.91,35.45,35.45,35.45h51.82c1.88,0,3.41,1.53,3.41,3.41s-1.53,3.41-3.41,3.41Z"/><path d="M248.99,641.56c-45.94,0-83.32-37.38-83.32-83.32s37.38-83.32,83.32-83.32,83.32,37.38,83.32,83.32-37.38,83.32-83.32,83.32Zm0-159.82c-42.18,0-76.49,34.31-76.49,76.49s34.31,76.5,76.49,76.5,76.49-34.32,76.49-76.5-34.31-76.49-76.49-76.49Z"/><path d="M189.34,786.37c-1.49,0-2.86-.98-3.28-2.49-6.65-23.65,5.25-49.14,27.66-59.29,10.42-4.72,22.25-5.73,33.31-2.87,1.82,.47,2.92,2.34,2.45,4.16-.48,1.82-2.33,2.91-4.16,2.45-9.69-2.51-19.64-1.66-28.78,2.48-19.37,8.77-29.65,30.79-23.91,51.23,.51,1.82-.55,3.7-2.36,4.21-.31,.09-.62,.13-.93,.13Z"/><path d="M147.27,756.03c-1.48,0-2.83-.96-3.27-2.45-.53-1.81,.5-3.71,2.31-4.24l51.82-15.21c1.81-.52,3.7,.51,4.24,2.31,.53,1.81-.5,3.71-2.31,4.24l-51.82,15.21c-.32,.09-.64,.14-.96,.14Z"/><path d="M383.06,672.76c-.34,0-.69-.05-1.03-.16-1.8-.57-2.79-2.48-2.22-4.28l63.46-200.65c-2.85-1.57-7.88-4.23-13.03-6.48-1.33-.58-2.15-1.93-2.04-3.37,.1-1.44,1.11-2.66,2.5-3.05,15.95-4.37,27.09-18.97,27.09-35.49,0-20.32-16.53-36.84-36.84-36.84s-36.84,16.53-36.84,36.84c0,7.63,2.34,14.98,6.78,21.24,.79,1.12,.84,2.6,.12,3.77-.72,1.17-2.06,1.78-3.42,1.58-8.05-1.25-14.24-1.67-17.48-1.82l-42.85,142.86c-.54,1.81-2.45,2.83-4.25,2.29-1.81-.54-2.83-2.44-2.29-4.25l43.61-145.37c.43-1.44,1.76-2.43,3.27-2.43,.27,0,5.49,.01,14.01,1.02-2.83-5.87-4.31-12.29-4.31-18.88,0-24.08,19.59-43.67,43.67-43.67s43.67,19.59,43.67,43.67c0,16.77-9.67,31.86-24.32,39.11,4.91,2.47,8.57,4.59,8.78,4.72,1.38,.8,2.02,2.46,1.54,3.98l-64.3,203.29c-.46,1.46-1.8,2.38-3.25,2.38Z"/><path d="M253.25,608c-17.3,0-27.63-14.7-28.12-15.41-.52-.75-.71-1.68-.54-2.58,.17-.9,.7-1.69,1.46-2.2,1.68-1.12,16.04-10.42,27.36-8.06,8.57-5.92,25.19-3.95,27.16-3.69,1.7,.22,2.97,1.67,2.97,3.38,0,7.8-4.86,23.63-23.26,27.76-2.46,.55-4.8,.79-7.03,.79Zm-20.15-16.45c4.06,4.34,13.14,11.81,25.69,9,13.15-2.95,16.66-12.9,17.59-18.03-6.87-.46-16.27,.1-19.86,3.47-.92,.86-2.24,1.15-3.43,.74-5.69-1.94-14.59,1.85-19.99,4.82Z"/><path d="M173.19,586.91c-1.23,0-2.42-.67-3.03-1.84-.87-1.67-.22-3.73,1.46-4.6,12.38-6.43,20.26-15.36,23.4-26.52,6.33-22.45-8.27-47.05-8.42-47.3-.94-1.56-.49-3.59,1.02-4.6,1.51-1.01,3.55-.66,4.64,.8,1.55,2.07,38.96,50.35,120.78,6.82,1.65-.88,3.73-.26,4.61,1.41,.88,1.66,.25,3.73-1.41,4.61-60.06,31.95-98.61,15.99-116.92,2.77,3.41,10.06,6.07,23.8,2.28,37.29-3.67,13.07-12.7,23.42-26.83,30.77-.5,.26-1.04,.38-1.57,.38Z"/><path d="M158.44,523.91c-.82,0-1.64-.02-2.46-.07-12.16-.64-23.34-5.98-31.48-15.03-16.81-18.68-15.28-47.56,3.4-64.37,18.68-16.81,47.56-15.28,64.37,3.4,5.41,6.01,9.13,13.36,10.75,21.24,.38,1.85-.81,3.65-2.65,4.03-1.85,.38-3.65-.81-4.03-2.65-1.38-6.7-4.54-12.94-9.14-18.05-14.29-15.88-38.84-17.18-54.73-2.89-7.69,6.92-12.23,16.43-12.78,26.77-.55,10.34,2.97,20.27,9.89,27.96,6.92,7.7,16.43,12.24,26.77,12.78,10.3,.52,20.27-2.97,27.96-9.89,1.4-1.26,3.56-1.15,4.82,.26,1.26,1.4,1.15,3.56-.26,4.82-8.44,7.59-19.16,11.7-30.42,11.7Z"/></g><path d="M377.61,779.4c-2.04,0-4.02-.41-5.88-1.24-9.52-4.23-12.45-17.72-6.68-30.7,2.66-5.98,6.82-10.91,11.7-13.89,5.29-3.22,10.82-3.83,15.57-1.72,4.75,2.11,8.01,6.63,9.15,12.71,1.06,5.62,.18,12.01-2.48,17.99h0c-2.66,5.98-6.81,10.91-11.7,13.89-3.22,1.96-6.53,2.95-9.69,2.95Zm8.84-41.95c-1.93,0-4.03,.66-6.15,1.94-3.71,2.26-6.92,6.11-9.02,10.84-4.07,9.17-2.6,19.11,3.22,21.69,2.65,1.18,5.93,.71,9.24-1.31,3.71-2.26,6.91-6.11,9.01-10.84h0c2.1-4.73,2.81-9.68,2.01-13.95-.72-3.81-2.57-6.56-5.22-7.74-.96-.43-2-.64-3.1-.64Z"/></g></g></g><path d="M822.09,385.66c-30.26,0-54.88-24.62-54.88-54.88s24.62-54.87,54.88-54.87,54.87,24.62,54.87,54.87-24.62,54.88-54.87,54.88Zm0-102.93c-26.5,0-48.05,21.56-48.05,48.05s21.56,48.05,48.05,48.05,48.05-21.56,48.05-48.05-21.56-48.05-48.05-48.05Z"/><path d="M664.59,363.78c-30.26,0-54.87-24.62-54.87-54.87s24.62-54.87,54.87-54.87,54.87,24.62,54.87,54.87-24.62,54.87-54.87,54.87Zm0-102.92c-26.49,0-48.05,21.56-48.05,48.05s21.56,48.05,48.05,48.05,48.05-21.56,48.05-48.05-21.56-48.05-48.05-48.05Z"/><path d="M770.63,492.53c-1.88,0-3.41-1.53-3.41-3.41v-61.12l-73.41-76.18c-1.31-1.36-1.27-3.52,.09-4.83,1.36-1.3,3.52-1.27,4.83,.09l74.37,77.17c.61,.64,.96,1.48,.96,2.37v62.5c0,1.88-1.53,3.41-3.41,3.41Z"/><path d="M932.24,535.59h-12.82c-1.88,0-3.41-1.53-3.41-3.41s1.53-3.41,3.41-3.41h8.08l-24.14-72.02c-.6-1.79,.36-3.72,2.15-4.32,1.79-.61,3.72,.36,4.32,2.15l25.65,76.51c.35,1.04,.18,2.19-.46,3.08-.64,.89-1.67,1.42-2.77,1.42Z"/><path d="M896.12,405.66c-.51,0-1.02-.11-1.5-.35-1.69-.83-2.39-2.87-1.56-4.57l94.6-192.43-15.17-9.89c-1.58-1.03-2.02-3.15-1-4.72,1.03-1.58,3.15-2.02,4.72-1l17.7,11.55c1.45,.94,1.96,2.82,1.2,4.37l-95.93,195.14c-.59,1.21-1.8,1.91-3.06,1.91Z"/><path d="M871.64,320.32c-.37,0-.74-.06-1.11-.18-1.78-.61-2.73-2.55-2.12-4.33l48.29-140.83c.3-.88,.95-1.6,1.8-1.99,.85-.39,1.82-.42,2.68-.08l12.53,4.92c1.76,.69,2.62,2.67,1.93,4.42-.69,1.76-2.68,2.61-4.42,1.93l-9.21-3.62-47.13,137.46c-.49,1.42-1.81,2.31-3.23,2.31Z"/><path d="M564.38,508.3c-.25,0-.51-.03-.77-.09-1.84-.42-2.98-2.25-2.56-4.09l17.06-74.27c6.71-29.21-1.18-60.01-21.11-82.39l-55.46-65.93c-.65-.77-.92-1.79-.75-2.79,.17-.99,.78-1.86,1.65-2.36l10.06-5.83c1.63-.94,3.72-.39,4.66,1.24,.94,1.63,.39,3.72-1.24,4.66l-6.54,3.79,52.78,62.75c21.33,23.96,29.8,57.03,22.6,88.39l-17.06,74.27c-.36,1.58-1.77,2.65-3.32,2.65Z"/><path d="M626.98,347.42c-.94,0-1.88-.39-2.56-1.15l-81.44-91.99-7.09,5.5c-1.49,1.16-3.63,.88-4.79-.61-1.16-1.49-.88-3.63,.61-4.79l9.62-7.45c1.42-1.1,3.45-.91,4.65,.44l83.55,94.39c1.25,1.41,1.12,3.57-.29,4.82-.65,.58-1.46,.86-2.26,.86Z"/><path d="M724.66,481.74c-1.7,0-3.17-1.27-3.38-3.01l-4.16-34.6c-1.24-10.29,5.08-19.87,15.02-22.78l27.78-8.13c1.82-.53,3.7,.5,4.23,2.32,.53,1.81-.51,3.71-2.32,4.23l-27.78,8.13c-6.73,1.97-11,8.45-10.17,15.41l4.16,34.6c.22,1.87-1.11,3.57-2.98,3.79-.14,.02-.28,.02-.41,.02Z"/><path d="M779.98,363.78c-.69,0-1.38-.21-1.98-.64l-63.93-45.69c-1.53-1.1-1.89-3.23-.79-4.76,1.1-1.53,3.23-1.89,4.76-.79l63.93,45.69c1.53,1.1,1.89,3.23,.79,4.76-.67,.93-1.72,1.43-2.78,1.43Z"/><path d="M510.56,277.21c-13.86,0-25.14-11.28-25.14-25.14s11.28-25.14,25.14-25.14c16.59,0,26.11,10.44,26.11,28.64,0,1.88-1.53,3.41-3.41,3.41s-3.41-1.53-3.41-3.41c0-14.48-6.49-21.82-19.28-21.82-10.1,0-18.32,8.22-18.32,18.32s8.22,18.32,18.32,18.32c1.03,0,2.07-.09,3.08-.26,1.84-.31,3.62,.94,3.93,2.8,.31,1.86-.94,3.62-2.8,3.93-1.38,.23-2.8,.35-4.21,.35Z"/><path d="M974.36,198.97c-1.27,0-2.48-.71-3.07-1.93-.82-1.7-.11-3.74,1.59-4.56,13.87-6.71,19.69-23.46,12.98-37.34-6.71-13.87-23.46-19.7-37.34-12.98-13.87,6.71-19.69,23.46-12.98,37.34,.82,1.7,.11,3.74-1.59,4.56-1.69,.82-3.73,.11-4.56-1.59-8.35-17.26-1.11-38.1,16.15-46.45,17.26-8.35,38.1-1.11,46.45,16.15,8.35,17.26,1.11,38.1-16.15,46.45-.48,.23-.98,.34-1.48,.34Z"/><path d="M902.05,459.47c-16.88,0-30.62-13.73-30.62-30.62s13.73-30.62,30.62-30.62,30.62,13.73,30.62,30.62-13.73,30.62-30.62,30.62Zm0-54.41c-13.12,0-23.79,10.67-23.79,23.79s10.67,23.79,23.79,23.79,23.79-10.67,23.79-23.79-10.67-23.79-23.79-23.79Z"/><path d="M355.03,169.04c-12.69,0-23.01-10.32-23.01-23.01,0-1.88,1.53-3.41,3.41-3.41s3.41,1.53,3.41,3.41c0,8.92,7.26,16.18,16.18,16.18s16.18-7.26,16.18-16.18c0-1.88,1.53-3.41,3.41-3.41s3.41,1.53,3.41,3.41c0,12.69-10.32,23.01-23.01,23.01Z"/><path d="M819.23,355.73c-12.69,0-23.01-10.32-23.01-23,0-1.88,1.53-3.41,3.41-3.41h39.19c1.88,0,3.41,1.53,3.41,3.41,0,12.68-10.32,23-23.01,23Zm-15.82-19.59c1.57,7.29,8.07,12.77,15.82,12.77s14.25-5.48,15.82-12.77h-31.64Z"/><path d="M670.58,337.68c-12.69,0-23.01-10.32-23.01-23.01,0-1.88,1.53-3.41,3.41-3.41h39.19c1.88,0,3.41,1.53,3.41,3.41,0,12.69-10.32,23.01-23.01,23.01Zm-15.82-19.59c1.57,7.29,8.07,12.77,15.82,12.77s14.25-5.48,15.82-12.77h-31.64Z"/><path d="M665.7,902.82c-8.26,0-16.29-2.62-23.06-7.62l-85.31-62.86c-8.39-6.18-13.87-15.26-15.43-25.57-1.56-10.3,.98-20.6,7.17-28.99l50.5-68.53c19.81-26.89,50.3-43.33,83.64-45.13l19.45-1.05c7.67-.41,14.68-4.19,19.23-10.37l32.77-44.48c3.91-5.31,11.41-6.44,16.72-2.53l23.45,17.28c5.31,3.91,6.45,11.41,2.53,16.72l-32.94,44.7c-4.11,5.57-5.49,12.62-3.8,19.33l5.39,21.43c8.16,32.38,1.48,66.37-18.33,93.25l-50.5,68.53c-6.18,8.39-15.26,13.87-25.57,15.43-1.98,.3-3.96,.45-5.93,.45Zm98.61-292.63c-1.58,0-3.13,.72-4.14,2.09l-32.77,44.47c-5.77,7.83-14.65,12.62-24.36,13.14l-19.45,1.05c-31.3,1.69-59.92,17.13-78.52,42.36l-50.51,68.53c-5.1,6.92-7.2,15.41-5.91,23.92,1.29,8.5,5.81,15.99,12.73,21.09l85.31,62.86c6.92,5.1,15.42,7.2,23.92,5.91,8.5-1.29,15.99-5.81,21.09-12.73l50.5-68.53c18.6-25.24,24.87-57.14,17.21-87.54h0l-5.4-21.43c-2.19-8.7-.4-17.82,4.92-25.05l32.95-44.7c1.68-2.28,1.19-5.5-1.09-7.17l-23.45-17.28c-.92-.68-1.98-1-3.04-1Z"/><path d="M844.02,566.03c-.72,0-1.44-.23-2.02-.67l-30.12-22.2c-.73-.54-1.22-1.34-1.35-2.24s.09-1.81,.63-2.53l15.63-21.21c-8.56-11.96-10.41-23.9-4.74-31.6,8.64-11.72,31.2-9.26,51.37,5.6,20.17,14.86,29.2,35.69,20.56,47.41h0c-5.67,7.69-17.64,9.46-31.58,4.83l-15.63,21.21c-.54,.73-1.34,1.22-2.24,1.35-.17,.02-.34,.04-.51,.04Zm-25.35-26.33l24.63,18.15,15.11-20.5c.91-1.24,2.53-1.71,3.96-1.17,11.83,4.49,22.08,3.85,26.12-1.62h0c6.16-8.36-2.6-25.7-19.11-37.87-16.52-12.17-35.67-15.4-41.83-7.04-4.04,5.48-1.61,15.46,6.19,25.43,.94,1.21,.97,2.89,.06,4.13l-15.11,20.5Zm72.56-3.12h0Z"/><path class="cls-8" d="M775.47,591.41h-.05c-1.88-.03-3.39-1.58-3.36-3.47,.21-13.83-4.85-25.72-11.96-34.74-2.23,1-4.68,1.79-7.32,2.35-13.28,2.83-28.93-.93-34.87-8.36-2.84-3.55-3.38-7.72-1.54-11.74,2.92-6.35,10.11-8.9,19.27-6.83,8.8,2,18.25,7.82,25.91,15.87,2.94-2.21,5.41-5.36,6.59-9.84,1.33-5.07,.68-9.4-1.99-13.25-8.61-12.44-34.53-15.29-34.79-15.31-1.87-.2-3.23-1.87-3.04-3.75,.19-1.87,1.85-3.23,3.74-3.04,1.19,.12,29.28,3.19,39.69,18.21,3.82,5.51,4.83,11.87,2.99,18.88-1.42,5.44-4.42,9.94-8.74,13.3,6.37,8.27,13.15,21.16,12.89,38.36-.03,1.87-1.55,3.36-3.41,3.36Zm-45.83-56.66c-2.77,0-5.77,.73-7.07,3.55-.77,1.67-.56,3.09,.66,4.62,3.85,4.82,16.36,8.44,28.12,5.95,1.25-.26,2.57-.62,3.89-1.08-6.72-6.62-14.44-10.99-21.13-12.5-1.07-.24-2.73-.54-4.48-.54Z"/><path class="8" d="M818.2,618.84c-1.21,0-2.38-.64-3-1.78-.9-1.66-.29-3.73,1.37-4.63,.54-.29,13.43-7.24,31.73-11.83,24.44-6.13,46.83-4.97,64.74,3.34,1.71,.79,2.45,2.82,1.66,4.53-.8,1.71-2.82,2.45-4.53,1.66-40.03-18.58-89.84,8.02-90.33,8.29-.52,.28-1.08,.41-1.63,.41Z"/><path class="8" d="M846.49,665.69c-1.35,0-2.63-.81-3.17-2.14-6.15-15.33-27.79-24.02-28-24.11-1.37-.54-2.24-1.89-2.16-3.36,.08-1.47,1.09-2.72,2.5-3.11,1.27-.35,31.51-8.35,67.86,6.12,1.75,.7,2.61,2.68,1.91,4.43-.7,1.75-2.69,2.6-4.43,1.91-22.12-8.81-42.13-8.7-53.56-7.52,7.7,4.54,17.88,12.27,22.22,23.08,.7,1.75-.15,3.74-1.9,4.44-.42,.17-.85,.24-1.27,.24Z"/><path class="8" d="M719.11,605.46c-1.22,0-2.45-.16-3.67-.48-3.71-.97-6.81-3.33-8.75-6.64-1.94-3.31-2.47-7.17-1.5-10.88,.97-3.71,3.33-6.82,6.64-8.75s7.18-2.46,10.88-1.49c3.71,.97,6.81,3.33,8.75,6.64,1.94,3.31,2.47,7.17,1.5,10.88h0c-.97,3.71-3.33,6.82-6.64,8.75-2.23,1.3-4.71,1.97-7.22,1.97Zm-.04-21.89c-1.32,0-2.62,.35-3.78,1.03-1.74,1.02-2.97,2.65-3.48,4.59-.51,1.94-.23,3.97,.78,5.71,1.02,1.74,2.65,2.97,4.59,3.48,1.96,.51,3.97,.23,5.71-.78,1.74-1.02,2.97-2.65,3.48-4.59h0c.51-1.94,.23-3.97-.78-5.71-1.02-1.74-2.64-2.97-4.59-3.48-.64-.17-1.28-.25-1.92-.25Z"/><path class="8" d="M795.48,599.3c-.4,0-.81-.07-1.21-.22-1.76-.67-2.65-2.63-1.99-4.4,15.76-41.73-7.67-75.99-7.91-76.33-1.08-1.54-.7-3.67,.84-4.75,1.54-1.08,3.67-.71,4.75,.83,1.06,1.51,25.77,37.46,8.71,82.66-.52,1.37-1.82,2.21-3.19,2.21Z"/><path d="M627.78,817.1c-.95,0-1.85-.4-2.5-1.09-.24-.25-24.06-25.51-68.52-41.22-1.78-.63-2.71-2.58-2.08-4.35,.63-1.78,2.58-2.71,4.35-2.08,37.75,13.35,60.74,32.92,68.41,40.19l54.3-70.1c-7.88-5.82-33-23.04-70.25-35.87-1.78-.61-2.73-2.55-2.12-4.34,.61-1.78,2.56-2.73,4.34-2.12,46.5,16.02,73.85,38.12,74.99,39.06,1.43,1.17,1.67,3.27,.54,4.73l-58.76,75.87c-.61,.79-1.54,1.27-2.54,1.32-.05,0-.1,0-.15,0Z"/><path d="M842.03,527.84c-.65,0-1.3-.18-1.88-.56l-11.01-7.26c-1.58-1.04-2.01-3.15-.97-4.73,1.04-1.58,3.16-2.01,4.73-.97l11.01,7.26c1.58,1.04,2.01,3.15,.97,4.73-.66,1-1.74,1.54-2.85,1.54Z"/><path class="8" d="M613.13,114.87c-1.25,0-2.4-.68-2.99-1.78l-.94-1.72c-6.42-11.74-16.03-21.35-27.77-27.77l-1.72-.94c-1.1-.6-1.78-1.75-1.78-2.99s.68-2.4,1.78-2.99l1.72-.94c11.75-6.43,21.35-16.03,27.77-27.77l.94-1.72c.6-1.09,1.75-1.78,2.99-1.78s2.4,.68,2.99,1.78l.94,1.72c6.42,11.74,16.02,21.34,27.77,27.77l1.72,.94c1.09,.6,1.78,1.75,1.78,2.99s-.68,2.4-1.78,2.99l-1.72,.94c-11.74,6.42-21.35,16.03-27.77,27.77l-.94,1.72c-.6,1.09-1.75,1.78-2.99,1.78Zm-24.9-35.2c10.13,6.26,18.64,14.77,24.9,24.9,6.26-10.13,14.77-18.64,24.9-24.9-10.14-6.26-18.64-14.77-24.9-24.9-6.26,10.13-14.77,18.64-24.9,24.9Z"/><path class="8" d="M291.43,424.39c-1.25,0-2.4-.68-2.99-1.78l-.7-1.28c-4.69-8.57-11.69-15.57-20.26-20.26l-1.27-.69c-1.1-.6-1.78-1.75-1.78-2.99s.68-2.4,1.78-3l1.28-.7c8.56-4.68,15.57-11.69,20.26-20.26l.7-1.28c.6-1.1,1.75-1.78,2.99-1.78s2.4,.68,2.99,1.78l.7,1.28c4.69,8.57,11.69,15.57,20.26,20.26l1.28,.7c1.1,.6,1.78,1.75,1.78,3s-.68,2.4-1.78,2.99l-1.28,.7c-8.56,4.68-15.57,11.69-20.25,20.26l-.7,1.28c-.6,1.1-1.75,1.78-2.99,1.78Zm-16.83-27c6.73,4.38,12.45,10.11,16.83,16.83,4.39-6.73,10.11-12.45,16.83-16.83-6.73-4.39-12.45-10.11-16.83-16.84-4.39,6.73-10.11,12.45-16.83,16.84Z"/><path class="8" d="M227.94,390.87c-1.25,0-2.4-.68-2.99-1.78l-.7-1.28c-4.69-8.57-11.69-15.57-20.26-20.26l-1.27-.69c-1.1-.6-1.78-1.75-1.78-2.99s.68-2.4,1.78-3l1.28-.7c8.57-4.68,15.57-11.69,20.26-20.26l.7-1.28c.6-1.1,1.75-1.78,2.99-1.78s2.4,.68,2.99,1.78l.7,1.28c4.68,8.57,11.69,15.57,20.26,20.26l1.28,.7c1.1,.6,1.78,1.75,1.78,3s-.68,2.4-1.78,2.99l-1.28,.7c-8.56,4.68-15.57,11.69-20.25,20.26l-.7,1.28c-.6,1.1-1.75,1.78-2.99,1.78Zm-16.83-27c6.73,4.38,12.45,10.1,16.83,16.83,4.38-6.73,10.1-12.45,16.83-16.83-6.73-4.39-12.45-10.11-16.83-16.84-4.39,6.73-10.11,12.45-16.83,16.84Z"/></g></g></svg>