<?xml version="1.0" encoding="UTF-8"?><svg id="Layer_2" xmlns="http://www.w3.org/2000/svg" viewBox="0 0 885.58 640.88"><defs><style>.cls-10{fill:#0062c0;}</style></defs><g id="Capa_1"><g><g><path d="M350.15,190.78H18.53c-7.77,0-14.36-4.49-17.2-11.72-2.84-7.23-1.06-15.01,4.63-20.3L171.77,4.9c7.05-6.54,18.09-6.54,25.14,0h0l165.81,153.86c5.7,5.29,7.47,13.06,4.63,20.3-2.84,7.23-9.43,11.73-17.2,11.73ZM184.34,6.81c-2.85,0-5.7,1.03-7.93,3.09L10.61,163.77c-4.29,3.98-4.32,9.22-2.92,12.8,1.4,3.57,4.99,7.39,10.85,7.39H350.15c5.86,0,9.44-3.82,10.85-7.39,1.4-3.57,1.37-8.82-2.92-12.8L192.26,9.91c-2.22-2.06-5.07-3.09-7.92-3.09Z"/><path d="M127.17,317.09H56.99c-1.89,0-3.41-1.53-3.41-3.41v-126.31c0-1.88,1.53-3.41,3.41-3.41H127.17c1.89,0,3.41,1.53,3.41,3.41v126.31c0,1.88-1.53,3.41-3.41,3.41Zm-66.77-6.83h63.35v-119.48H60.4v119.48Z"/><path d="M311.69,317.09h-63.67c-1.89,0-3.41-1.53-3.41-3.41v-126.31c0-1.88,1.53-3.41,3.41-3.41h63.67c1.89,0,3.41,1.53,3.41,3.41v126.31c0,1.88-1.53,3.41-3.41,3.41Zm-60.26-6.83h56.85v-119.48h-56.85v119.48Z"/><path d="M365.24,399.54H3.44c-1.89,0-3.41-1.53-3.41-3.41v-82.45c0-1.88,1.53-3.41,3.41-3.41H365.24c1.89,0,3.41,1.53,3.41,3.41v82.45c0,1.88-1.53,3.41-3.41,3.41ZM6.85,392.72H361.83v-75.62H6.85v75.62Z"/><path class="cls-10" d="M311.69,596.93h-89.94c-22.51,0-40.83-18.31-40.83-40.83v-145.58c0-1.88,1.53-3.41,3.41-3.41s3.41,1.53,3.41,3.41v145.58c0,18.75,15.25,34,34,34h89.94c1.89,0,3.41,1.53,3.41,3.41s-1.53,3.41-3.41,3.41Z"/><path class="cls-10" d="M356.63,640.88c-25.91,0-46.99-21.08-46.99-46.99s21.08-46.99,46.99-46.99,46.99,21.08,46.99,46.99-21.08,46.99-46.99,46.99Zm0-87.15c-22.15,0-40.16,18.02-40.16,40.16s18.02,40.16,40.16,40.16,40.16-18.02,40.16-40.16-18.02-40.16-40.16-40.16Z"/><path class="cls-10" d="M569.89,107c-25.91,0-46.99-21.08-46.99-46.99s21.08-46.99,46.99-46.99,46.99,21.08,46.99,46.99-21.08,46.99-46.99,46.99Zm0-87.15c-22.15,0-40.16,18.02-40.16,40.16s18.02,40.16,40.16,40.16,40.16-18.02,40.16-40.16-18.02-40.16-40.16-40.16Z"/><path d="M846.67,640.88h-225.08c-1.89,0-3.41-1.53-3.41-3.41s1.53-3.41,3.41-3.41h225.08c17.69,0,32.09-14.39,32.09-32.09v-67.6c0-54.22-34.52-102.44-85.9-119.98-1.3-.44-2.2-1.62-2.3-2.98s.63-2.66,1.85-3.28c32.12-16.46,51.07-50.36,48.28-86.37-3.37-43.51-38.75-78.65-82.29-81.74-25.06-1.77-48.93,6.62-67.22,23.65-18.03,16.8-28.38,40.56-28.38,65.19,0,33.54,18.61,63.91,48.56,79.26,1.22,.62,1.95,1.92,1.85,3.28-.1,1.37-1,2.54-2.3,2.98-37.39,12.77-67.11,42.72-79.51,80.13-.59,1.79-2.52,2.76-4.31,2.17s-2.76-2.52-2.17-4.31c12.29-37.07,40.7-67.19,76.8-81.84-28.4-17.41-45.75-48.06-45.75-81.67,0-26.52,11.14-52.1,30.55-70.19,19.69-18.34,45.39-27.37,72.35-25.47,46.88,3.33,84.98,41.17,88.61,88.02,2.81,36.25-14.85,70.52-45.45,89.3,50.27,20.33,83.55,69.19,83.55,123.84v67.6c0,21.46-17.46,38.91-38.91,38.91Z"/><path class="cls-10" d="M540.05,597.3h-139.84c-1.89,0-3.41-1.53-3.41-3.41s1.53-3.41,3.41-3.41h139.84c1.89,0,3.41,1.53,3.41,3.41s-1.53,3.41-3.41,3.41Z"/><path class="cls-10" d="M524.39,60.4H267.73c-1.89,0-3.41-1.53-3.41-3.41s1.53-3.41,3.41-3.41h256.67c1.89,0,3.41,1.53,3.41,3.41s-1.53,3.41-3.41,3.41Z"/><path class="cls-10" d="M733.52,227.96c-1.89,0-3.41-1.53-3.41-3.41V101.29c0-20.88-16.99-37.86-37.86-37.86h-78.78c-1.89,0-3.41-1.53-3.41-3.41s1.53-3.41,3.41-3.41h78.78c24.64,0,44.69,20.05,44.69,44.69v123.25c0,1.88-1.53,3.41-3.41,3.41Z"/></g><path d="M723.48,640.88h-150.37c-1.38,0-2.63-.84-3.16-2.12l-56.21-136.87c-.43-1.05-.31-2.25,.32-3.19,.63-.95,1.7-1.51,2.83-1.51h150.38c1.38,0,2.63,.84,3.16,2.12l56.21,136.87c.43,1.05,.31,2.25-.32,3.19-.63,.95-1.7,1.51-2.83,1.51Zm-148.09-6.83h143l-53.4-130.05h-143l53.4,130.05Z"/><path d="M827,595.45h-45.77c-1.89,0-3.41-1.53-3.41-3.41,0-20.62-16.78-37.4-37.4-37.4-11.11,0-21.57,4.89-28.7,13.42-1.21,1.44-3.36,1.64-4.81,.43-1.45-1.21-1.64-3.36-.43-4.81,8.43-10.08,20.8-15.86,33.93-15.86,23.24,0,42.34,18.01,44.09,40.81h39.07v-73.16c0-1.88,1.53-3.41,3.41-3.41s3.41,1.53,3.41,3.41v76.58c0,1.88-1.53,3.41-3.41,3.41Z"/><path d="M743.54,553.17c-.57,0-1.15-.14-1.68-.44-1.64-.93-2.21-3.01-1.28-4.65l18.34-32.32c.93-1.64,3.02-2.22,4.65-1.28,1.64,.93,2.21,3.01,1.28,4.65l-18.34,32.32c-.63,1.11-1.78,1.73-2.97,1.73Z"/></g></g></svg>