<?xml version="1.0" encoding="UTF-8"?><svg id="Layer_2" xmlns="http://www.w3.org/2000/svg" viewBox="0 0 890.98 561.92"><defs><style>.cls-9{fill:#0062c0;}</style></defs><g id="Capa_1"><g><g><path d="M550.93,561.92H266.47c-1.89,0-3.41-1.53-3.41-3.41V60.77c0-1.88,1.53-3.41,3.41-3.41s3.41,1.53,3.41,3.41v494.32h281.04c1.89,0,3.41,1.53,3.41,3.41s-1.53,3.41-3.41,3.41Z"/><path d="M693.16,137.54c-1.89,0-3.41-1.53-3.41-3.41V60.77c0-1.88,1.53-3.41,3.41-3.41s3.41,1.53,3.41,3.41v73.36c0,1.88-1.53,3.41-3.41,3.41Z"/><path d="M550.93,429.13c-1.89,0-3.41-1.53-3.41-3.41V65.85c0-1.88,1.53-3.41,3.41-3.41s3.41,1.53,3.41,3.41V425.72c0,1.88-1.53,3.41-3.41,3.41Z"/><path d="M887.57,561.92H444.58c-1.06,0-2.06-.49-2.71-1.34-.65-.84-.86-1.94-.59-2.96,.45-1.67,11.32-41.35,44.47-81.64,30.63-37.22,86.78-81.59,180.32-81.59s149.69,44.37,180.32,81.59c33.15,40.28,44.02,79.97,44.47,81.64,.27,1.02,.06,2.12-.59,2.96-.65,.84-1.65,1.34-2.71,1.34Zm-438.36-6.83h433.73c-3.76-11.34-15.9-43.35-41.99-74.98-29.69-35.99-84.13-78.89-174.87-78.89s-145.18,42.9-174.87,78.89c-26.09,31.63-38.23,63.64-41.99,74.98Z"/><path d="M266.47,507.49h-80.37c-1.89,0-3.41-1.53-3.41-3.41s1.53-3.41,3.41-3.41h76.96v-187.95h-97.43c-10.28,0-20.22,3.06-28.72,8.86-7.71,5.26-13.91,13.35-17.91,23.41l-7.62,19.12c-8.42,21.12-28.54,35.46-51.26,36.52l-32.75,1.53c-11.52,.54-20.54,10-20.54,21.53v50.96c0,14.35,11.68,26.03,26.03,26.03h50.93c1.89,0,3.41,1.53,3.41,3.41s-1.53,3.41-3.41,3.41H32.85c-18.12,0-32.85-14.74-32.85-32.85v-50.96c0-15.19,11.88-27.64,27.05-28.34l32.75-1.53c20.05-.94,37.8-13.59,45.23-32.23l7.62-19.12c4.51-11.32,11.57-20.49,20.41-26.52,9.64-6.57,20.9-10.04,32.56-10.04h100.85c1.89,0,3.41,1.53,3.41,3.41v194.78c0,1.88-1.53,3.41-3.41,3.41Z"/><path d="M134.94,558.64c-30.09,0-54.57-24.48-54.57-54.57s24.48-54.57,54.57-54.57,54.57,24.48,54.57,54.57-24.48,54.57-54.57,54.57Zm0-102.31c-26.33,0-47.74,21.42-47.74,47.74s21.42,47.74,47.74,47.74,47.74-21.42,47.74-47.74-21.42-47.74-47.74-47.74Z"/><path class="cls-9" d="M224.78,401.22h-81.46c-4.45,0-8.49-2.26-10.81-6.05-2.32-3.79-2.51-8.42-.49-12.38l13.98-27.49c4.94-10.4,19.24-21.02,36.94-21.02h43.76c8.21,0,14.88,6.68,14.88,14.88v35.27c0,9.26-7.53,16.79-16.79,16.79Zm-41.85-60.12c-14.7,0-26.85,8.86-30.81,17.2l-14.02,27.58c-.94,1.86-.86,3.94,.23,5.72,1.09,1.78,2.91,2.79,4.99,2.79h81.46c5.5,0,9.97-4.47,9.97-9.97v-35.27c0-4.44-3.61-8.06-8.06-8.06h-43.76Z"/><path d="M134.94,533.79c-16.38,0-29.71-13.33-29.71-29.72s13.33-29.72,29.71-29.72,29.71,13.33,29.71,29.72-13.33,29.72-29.71,29.72Zm0-52.61c-12.62,0-22.89,10.27-22.89,22.89s10.27,22.89,22.89,22.89,22.89-10.27,22.89-22.89-10.27-22.89-22.89-22.89Z"/><path d="M352.99,561.92H3.41c-1.89,0-3.41-1.53-3.41-3.41s1.53-3.41,3.41-3.41H352.99c1.89,0,3.41,1.53,3.41,3.41s-1.53,3.41-3.41,3.41Z"/><path class="cls-9" d="M731.1,381.92c-3.47,0-6.98-.2-10.5-.59-40.21-4.48-73.46-36.75-79.06-76.74-4.11-29.33,5.69-57.8,26.89-78.11,11.25-10.77,15.64-26.22,11.47-40.32-.6-2.04-1.09-4.14-1.45-6.25-2.52-14.91,1.44-30.25,10.87-42.08,9.56-12,23.33-19.1,38.77-19.98,25.13-1.46,47.95,15.18,54.34,39.53,2.08,7.93,2.35,15.96,.8,23.88h0c-3.55,18.12,1.22,35.64,13.09,48.06,16.1,16.85,24.97,38.96,24.97,62.25,0,25.67-10.98,50.21-30.12,67.34-16.78,15.02-37.8,23-60.07,23Zm-.1-257.32c-.84,0-1.68,.02-2.52,.07-13.48,.78-25.5,6.97-33.83,17.43-8.22,10.32-11.68,23.69-9.48,36.69,.31,1.84,.73,3.67,1.26,5.45,4.9,16.56-.19,34.64-13.29,47.19-19.59,18.77-28.65,45.1-24.85,72.23,5.17,36.95,35.9,66.76,73.06,70.9,24.15,2.71,47.33-4.67,65.26-20.72,17.69-15.83,27.84-38.52,27.84-62.25,0-21.53-8.19-41.96-23.07-57.54-13.42-14.04-18.84-33.76-14.86-54.09h0c1.35-6.9,1.12-13.91-.7-20.84-5.26-20.06-24.26-34.52-44.83-34.52Z"/><path d="M728.57,451.42c-1.89,0-3.41-1.53-3.41-3.41v-147.71l-24.66-24.66c-1.33-1.33-1.33-3.49,0-4.83s3.49-1.33,4.83,0l19.84,19.84v-36.94c0-1.88,1.53-3.41,3.41-3.41s3.41,1.53,3.41,3.41v194.3c0,1.88-1.53,3.41-3.41,3.41Z"/><path d="M730.96,60.7H224c-1.89,0-3.41-1.53-3.41-3.41V3.41c0-1.88,1.53-3.41,3.41-3.41h506.96c1.89,0,3.41,1.53,3.41,3.41V57.29c0,1.88-1.53,3.41-3.41,3.41Zm-503.55-6.83h500.13V6.83H227.41V53.87Z"/><path d="M578.74,56.18c-1.89,0-3.41-1.53-3.41-3.41V3.41c0-1.88,1.53-3.41,3.41-3.41s3.41,1.53,3.41,3.41V52.77c0,1.88-1.53,3.41-3.41,3.41Z"/><path d="M500.22,159.07h-177.62c-1.89,0-3.41-1.53-3.41-3.41v-52.53c0-1.88,1.53-3.41,3.41-3.41h177.62c1.89,0,3.41,1.53,3.41,3.41v52.53c0,1.88-1.53,3.41-3.41,3.41Zm-174.2-6.83h170.79v-45.71h-170.79v45.71Z"/><path d="M500.22,267.18h-177.62c-1.89,0-3.41-1.53-3.41-3.41v-58.93c0-1.88,1.53-3.41,3.41-3.41h177.62c1.89,0,3.41,1.53,3.41,3.41v58.93c0,1.88-1.53,3.41-3.41,3.41Zm-174.2-6.83h170.79v-52.1h-170.79v52.1Z"/><path d="M500.22,371.44h-177.62c-1.89,0-3.41-1.53-3.41-3.41v-52.09c0-1.88,1.53-3.41,3.41-3.41h177.62c1.89,0,3.41,1.53,3.41,3.41v52.09c0,1.88-1.53,3.41-3.41,3.41Zm-174.2-6.83h170.79v-45.26h-170.79v45.26Z"/><path d="M322.6,558.64c-1.89,0-3.41-1.53-3.41-3.41v-108.91c0-10.69,8.7-19.38,19.38-19.38h157.76c10.69,0,19.38,8.7,19.38,19.38v1.68c0,1.88-1.53,3.41-3.41,3.41s-3.41-1.53-3.41-3.41v-1.68c0-6.93-5.63-12.56-12.56-12.56h-157.76c-6.93,0-12.56,5.63-12.56,12.56v108.91c0,1.88-1.53,3.41-3.41,3.41Z"/><path d="M408.7,558.64c-1.89,0-3.41-1.53-3.41-3.41v-124.88c0-1.88,1.53-3.41,3.41-3.41s3.41,1.53,3.41,3.41v124.88c0,1.88-1.53,3.41-3.41,3.41Z"/><g><path class="cls-9" d="M636.97,483.95c-1.89,0-3.41-1.53-3.41-3.41,0-13.48-10.97-24.44-24.44-24.44s-24.44,10.96-24.44,24.44c0,1.88-1.53,3.41-3.41,3.41s-3.41-1.53-3.41-3.41c0-17.24,14.03-31.27,31.27-31.27s31.27,14.03,31.27,31.27c0,1.88-1.53,3.41-3.41,3.41Z"/><path class="cls-9" d="M692.68,483.95c-1.89,0-3.41-1.53-3.41-3.41,0-13.48-10.97-24.44-24.44-24.44s-24.44,10.96-24.44,24.44c0,1.88-1.53,3.41-3.41,3.41s-3.41-1.53-3.41-3.41c0-17.24,14.03-31.27,31.27-31.27s31.27,14.03,31.27,31.27c0,1.88-1.53,3.41-3.41,3.41Z"/><path class="cls-9" d="M750.88,483.95c-1.89,0-3.41-1.53-3.41-3.41,0-13.48-10.97-24.44-24.44-24.44s-24.44,10.96-24.44,24.44c0,1.88-1.53,3.41-3.41,3.41s-3.41-1.53-3.41-3.41c0-17.24,14.03-31.27,31.27-31.27s31.27,14.03,31.27,31.27c0,1.88-1.53,3.41-3.41,3.41Z"/></g></g><path class="cls-9" d="M161.24,401.22c-.64,0-1.28-.18-1.86-.55-1.58-1.03-2.03-3.14-1-4.72l39.03-60.12c1.03-1.58,3.14-2.03,4.72-1,1.58,1.03,2.03,3.14,1,4.72l-39.03,60.12c-.65,1.01-1.75,1.56-2.87,1.56Z"/><path class="cls-9" d="M193.59,401.22c-.55,0-1.11-.13-1.63-.42-1.66-.9-2.27-2.97-1.37-4.63l30.41-55.83c.9-1.65,2.97-2.27,4.63-1.36s2.27,2.97,1.37,4.63l-30.41,55.83c-.62,1.14-1.79,1.78-3,1.78Z"/></g></g></svg>