<svg xmlns="http://www.w3.org/2000/svg" id="Layer_2" viewBox="0 0 552.38 521.56"><defs><style>.cls-4{fill:#0062c0}.cls-5,.cls-6{stroke:#000;fill:none;stroke-linecap:round;stroke-linejoin:round;stroke-width:3px}.cls-6{stroke:#0062c0}</style></defs><g id="Capa_1"><path d="M270.26 243.84H130.07M52.53 147.14V95.59c0-7.26 5.88-13.14 13.14-13.14h213.99c7.26 0 13.14 5.88 13.14 13.14v127.47M52.53 112.78H292.8" class="cls-5"/><circle cx="70.73" cy="99.08" r="6.07" class="cls-5"/><circle cx="91.16" cy="99.08" r="6.07" class="cls-5"/><circle cx="109.82" cy="99.08" r="6.07" class="cls-5"/><path d="M71.84 146.36c1.3-4.78 5.63-12.92 11.26-14.73" class="cls-6"/><path d="M101.71 218.6H70.73V158M93.94 132.76h116.23v85.84h-80.22" class="cls-5"/><path d="m70.73 218.6 55.61-22.97v-62.87M126.34 195.63h83.83" class="cls-5"/><path d="M86.35 212.15v-44.89l24.92-10.57v44.02M143.55 147.44h53.37v31h-53.37zM168.26 147.44v31" class="cls-5"/><circle cx="94.84" cy="190.2" r="3.69" class="cls-5"/><ellipse cx="80.82" cy="143.84" class="cls-6" rx="2.29" ry="3.6"/><ellipse cx="69.55" cy="134.43" class="cls-6" rx="2.29" ry="4.05"/><path d="M230.57 132.76h44.21M230.57 143.05h44.21M230.57 153.35h44.21M230.57 163.64h22.11" class="cls-5"/><rect width="51.03" height="11.76" x="228.92" y="204.1" class="cls-6" rx="5.88" ry="5.88"/><path d="m97.87 138.49-6.73 4.66 2.7 7.72-8.19-.19-2.34 7.85-6.51-4.97-6.52 4.97-2.34-7.85-8.19.19 2.71-7.72-6.74-4.66 6.74-4.67-2.71-7.72 8.19.19 2.34-7.85 6.52 4.97 6.51-4.97 2.34 7.85 8.19-.19-2.7 7.73 6.73 4.66z" class="cls-6"/><path d="M310.38 270.93v-11.06c0-6.24-5.06-11.29-11.29-11.29h77.37c5.63 0 10.19 4.56 10.19 10.19h0v69.89M334.44 350.53h0c-13.29 0-24.06-10.77-24.06-24.06v-17.03" class="cls-5"/><path d="M406.79 349.38c-2.13.7-4.4 1.07-6.77 1.07h-65.58c12.03 0 21.79-9.76 21.79-21.79h43.84M352.72 275.47h21.06M343.76 264.54h30.02M352.72 287.85h21.06M350.56 300.24h23.22M327.33 313.81h46.45" class="cls-5"/><circle cx="325.75" cy="284.43" r="19.88" class="cls-6"/><rect width="8.62" height="31.39" x="286.47" y="306.68" class="cls-6" rx="3.32" ry="3.32" transform="rotate(42.66 290.778 322.376)"/><path d="m312.25 299.07-10.84 11.77" class="cls-6"/><path d="M297.24 248.58h0c-5.79 0-10.49 4.7-10.49 10.49v3.32h23.64M113.43 266.6l18.03-27.09a17.765 17.765 0 0 0-1.51-21.64h0c-6.09-6.86-16.4-7.97-23.81-2.56-15.91 11.61-40.7 29.64-40.7 29.64l-.54.03c-8.88 1.8-12.3-6.5-12.3-18.5 0-27.97-.07-79.34-.07-79.34l-14.25 18.12c-11.27 14.33-18.93 31.14-22.49 49.01-.63 3.14-1.39 6.44-2.38 9.92L2.75 272.94c-5.83 26.63 9.27 53.4 35.08 62.19l7.63 2.6c6.57 2.24 13.53 3.23 20.45 2.65 12.22-1.02 27.83-6.95 32.35-29.53 3.15-15.72 6.27-30.87 15.18-44.26ZM460.99 364.55h0c13.12-3.96 26.64-3.09 33.7 8.66l7.2 14.69" class="cls-5"/><path d="m501.89 387.89-9.16-17.48v-.9c13.12-3.96 25.76-2.83 32.82 8.91l7.2 14.69 15.05 47.42c2.69 8.47 3.73 17.43 2.67 26.26-7.65 63.65-105.83 52.52-105.83 52.52h0c-29.09-1.49-54.39-20.42-64.02-47.9l-19.43-55.45c-1.49-7.03.63-14.34 5.64-19.48h0c9.99-10.27 27.04-8.1 34.15 4.34l14.39 25.19c1.86 3.26 6.86 1.53 6.3-2.19l-3.97-26.44c-2.8-18.65-7.18-37.02-13.08-54.93l-11.27-34.19c-1.65-8.79 3.78-17.36 12.43-19.63h0c7.65-2 15.67 1.51 19.38 8.49l53.58 100.84M373.78 181.36v25.78M126.34 82.44V22.76c0-11.74 9.52-21.26 21.26-21.26h204.93c11.74 0 21.26 9.52 21.26 21.26V44.2" class="cls-5"/><path d="M373.78 455.21v-4.27c0 8.91-7.22 16.13-16.13 16.13H147.67c-8.08 0-14.63-6.55-14.63-14.63M133.05 243.84v98.92M354.21 44.2c1.63-2.3 2.59-5.12 2.59-8.16h0c0-7.8-6.32-14.12-14.12-14.12H157.44c-7.8 0-14.12 6.32-14.12 14.12h0c0 7.8 6.32 14.12 14.12 14.12h164.97" class="cls-5"/><path d="M165.72 37.5c-1.73 0-3.16 1.3-3.4 3V27.53h-3.61c-4.58 0-8.3 3.81-8.3 8.51s3.72 8.51 8.3 8.51h3.61v-3c.25 1.7 1.68 3 3.4 3 1.9 0 3.44-1.58 3.44-3.53s-1.54-3.53-3.44-3.53" class="cls-4"/><path d="M441.52 326.33c14.79-50.6-14.25-103.61-64.85-118.4-50.6-14.79-103.61 14.25-118.4 64.85-7.3 24.97-3.92 50.52 7.45 71.78l-13.39 21.07 23.63-5.69c11.78 14.45 27.91 25.62 47.16 31.24 32.65 9.54 66.3.84 90.03-20.13M192.7 351.32h22.9c7.36 0 13.32 5.96 13.32 13.32v72.61c0 7.36-5.96 13.32-13.32 13.32H87.15c-7.36 0-13.32-5.96-13.32-13.32v-72.61c0-7.36 5.96-13.32 13.32-13.32h17.32M148.99 350.45h20.34" class="cls-5"/><path d="M131.8 390.92h-9.12c-9.77-.18-20.33 10.31-20.33 25.05v16.5h0c0 5.83 4.73 10.56 10.56 10.56h14.08" class="cls-5"/><circle cx="140.53" cy="371.05" r="21.7" class="cls-5"/><path d="M124.33 432.08c-1.67-5.95 1.2-12.38 7-15.01 2.75-1.25 5.72-1.43 8.43-.73M126.98 419.71l-14.07 4.13M176.95 401.23l17.46-55.21s-2.08-1.21-4.28-2.17c4.63-1.27 8.04-5.5 8.04-10.53 0-6.04-4.89-10.93-10.93-10.93s-10.93 4.89-10.93 10.93c0 2.35.75 4.52 2.01 6.3-3.4-.53-5.57-.53-5.57-.53l-11.84 39.48M134.81 379.86s3.28 4.77 8.58 3.59c5.59-1.25 5.59-6.63 5.59-6.63s-5.15-.68-7.05 1.1c-2.79-.95-7.13 1.95-7.13 1.95ZM119.94 377.91c13.2-6.86 4.43-21.35 4.43-21.35s10.73 14.49 33.98 2.12M123.58 357.86c-4.7 4.23-11.94 3.85-16.17-.85-4.23-4.7-3.85-11.94.85-16.17 4.7-4.23 11.94-3.85 16.17.85 1.41 1.57 2.31 3.41 2.7 5.34" class="cls-5"/><path d="M207.69 401.23h-49.61c-1.8 0-3.47.93-4.42 2.46l-16.62 26.8a3.469 3.469 0 0 1-2.95 1.64h-9.95c-2.93 0-5.31 2.38-5.31 5.31v.26c0 2.93 2.38 5.31 5.31 5.31h64.09c1.8 0 3.47-.93 4.42-2.46l19.46-31.38c2.15-3.47-.34-7.95-4.42-7.95Z" class="cls-6"/><ellipse cx="176.67" cy="424.49" class="cls-6" rx="5.96" ry="4.12" transform="rotate(-66.03 176.667 424.493)"/><rect width="199.4" height="137.16" x="318.67" y="44.2" class="cls-5" rx="20.25" ry="20.25"/><path d="M403.69 81.61c4.71-5.14 10.99-5.7 16.24-5.7h5.93l-6.51-9.31c-2-2.86.05-6.79 3.54-6.79h19.76c3.53 0 5.57 4 3.49 6.85l-6.72 9.24h4.73c11.85 0 22.31 7.72 25.8 19.04l10.15 32.87c4.59 14.87-6.52 29.93-22.08 29.93h-16.24" class="cls-5"/><path d="m426.44 64.77.23.24a7.783 7.783 0 0 0 11.5-.24h0M426.79 84.42l5.51-6.61 6.26 6.61M400.31 105.94h33.11c5.42 0 9.82 4.4 9.82 9.82v36.87c0 5.42-4.4 9.82-9.82 9.82h-68.01c-5.42 0-9.82-4.4-9.82-9.82v-36.87c0-5.42 4.4-9.82 9.82-9.82h0" class="cls-5"/><path d="M355.59 133.09h87.65v15.45h-87.65zM412.1 116.3h20.2v9.54h-20.2z" class="cls-5"/><circle cx="383.46" cy="91.83" r="21.98" class="cls-6"/><path d="M382.23 106.44c-.27-.27-.43-.6-.47-.97-.07-.43-.1-.83-.03-1.27a1.4 1.4 0 0 0 0-.5c0-.47-.03-.93-.07-1.4 0-.03 0-.07-.03-.1-.1-.07-.27-.1-.4-.13-.77-.1-1.47-.37-2.2-.63a7.9 7.9 0 0 1-.97-.47c-.57-.33-1.13-.7-1.66-1.07-.53-.33-.97-.8-1.33-1.3-.37-.57-.4-1.13-.1-1.73.37-.73.93-1 1.86-.93.6.03 1.07.3 1.5.7.53.5 1.07.97 1.7 1.33.33.2.73.33 1.1.43.38.12.77.21 1.15.32l.3.04c.68 0 1.36.03 2.04-.03.5-.07.97-.17 1.43-.33.13-.07.27-.1.37-.17.59-.38 1.15-.82 1.64-1.37.13-.14.23-.33.26-.52.1-.57.01-1.14-.1-1.68-.07-.47-.33-.83-.63-1.1-.57-.53-1.2-.97-1.96-1.2-.3-.1-.57-.2-.83-.33-.5-.27-1-.4-1.53-.5-.73-.2-1.47-.37-2.2-.57-.57-.13-1.1-.37-1.66-.63-.2-.1-.4-.2-.63-.27-.77-.33-1.43-.77-1.96-1.43-.07-.1-.13-.17-.2-.27-.4-.4-.63-.87-.8-1.4s-.23-1.1-.33-1.63v-.3c-.03-.9.17-1.8.5-2.66.27-.7.63-1.3 1.23-1.8.23-.2.43-.4.67-.6.47-.47 1.03-.8 1.63-1.07.67-.3 1.37-.57 2.06-.7.13-.17.1-.33.07-.46-.07-.57-.03-1.13-.03-1.7-.03-.63.27-1.13.73-1.53.4-.4 1-.43 1.53-.33.17.03.37.07.57.1.27.07.47.2.67.37.33.33.47.77.5 1.2.03.27.03.53.03.77v1.43c0 .1.03.2.03.3.1.03.17.07.23.1.27.07.57.13.83.2.27.1.53.23.77.37.2.13.4.23.63.3.73.23 1.37.63 1.96 1.1.21.16.38.34.55.52.2.22.37.48.43.77 0 .03 0 .05.01.08.16 1-.55 1.99-1.54 2.19h-.02c-.4.07-.77 0-1.13-.2-.18-.07-.36-.18-.49-.29-.35-.27-.7-.53-1.09-.72-.66-.32-1.31-.67-2.01-.92-.4-.17-.8-.27-1.23-.23h-.1c-.67-.07-1.26.1-1.86.4-.43.2-.87.4-1.27.67-.37.24-.66.57-.93.91-.13.17-.21.37-.23.58-.03.29-.07.58-.07.88 0 .63.27 1.13.8 1.5.7.43 1.43.77 2.23.97.47.1.9.27 1.33.37.73.23 1.43.47 2.2.57.2 0 .4.1.6.17.5.23 1.03.43 1.53.67.27.13.53.27.8.43.67.46 1.3.97 1.87 1.5.53.53.93 1.2 1.23 1.9.13.33.3.7.37 1.07.07.2.1.4.1.6.03.77-.07 1.5-.23 2.23-.17.73-.53 1.37-.97 1.93-.3.47-.73.87-1.17 1.2-.63.53-1.33.93-2.06 1.33-.5.27-1.07.43-1.63.6-.13.03-.23.07-.33.1-.07.4-.07.8-.07 1.2.03.6.03 1.17.03 1.77 0 .8-.43 1.3-1.03 1.7-.27.17-.63.23-1 .2-.57-.03-1.16-.3-1.46-.6Z" class="cls-4"/></g></svg>