<?xml version="1.0" encoding="utf-8"?>
<!-- Generator: Adobe Illustrator 26.3.1, SVG Export Plug-In . SVG Version: 6.00 Build 0)  -->
<svg version="1.1" id="Layer_2_00000110451403190222575620000016158883244546299053_"
	 xmlns="http://www.w3.org/2000/svg" xmlns:xlink="http://www.w3.org/1999/xlink" x="0px" y="0px" viewBox="0 0 1070 1070"
	 style="enable-background:new 0 0 1070 1070;" xml:space="preserve">
<style type="text/css">
	.st0{fill:none;}
	.st1{fill:#0062C0;}
</style>
<g id="Capa_1">
	<g>
		<path class="st0" d="M50,0H1020c27.6,0,50,22.4,50,50V1020c0,27.6-22.4,50-50,50H50c-27.6,0-50-22.4-50-50V50C0,22.4,22.4,0,50,0z
			"/>
		<g>
			<path d="M414.2,602.6h-0.1L244.9,600c-11,0-20.1-9.1-20.1-20.2V492c0-11.1,9.1-20.2,20.2-20.2H814c11.1,0,20.2,9.1,20.2,20.2
				v87.8c0,11.1-9.1,20.2-20.2,20.2H459.6c-4.8,0-8.6-3.9-8.6-8.6s3.9-8.6,8.6-8.6H814c1.6,0,2.9-1.3,2.9-2.9V492
				c0-1.6-1.3-2.9-2.9-2.9H245.1c-1.6,0-2.9,1.3-2.9,2.9v87.8c0,1.6,1.3,2.9,2.9,2.9l169.2,2.6c4.8,0.1,8.6,4,8.5,8.8
				C422.8,598.9,418.9,602.6,414.2,602.6L414.2,602.6z"/>
			<path class="st1" d="M770.1,802.9h-109c-35.3,0-64.1-28.8-64.1-64.1s28.8-64.1,64.1-64.1h109c35.3,0,64.1,28.8,64.1,64.1
				S805.4,802.9,770.1,802.9z M661.1,692c-25.8,0-46.8,21-46.8,46.8s21,46.8,46.8,46.8h109c25.8,0,46.8-21,46.8-46.8
				s-21-46.8-46.8-46.8H661.1z"/>
			<path d="M277.6,571.5c-4.8,0-8.6-3.9-8.6-8.6v-53.9c0-4.8,3.9-8.6,8.6-8.6s8.6,3.9,8.6,8.6v53.9
				C286.2,567.6,282.4,571.5,277.6,571.5z"/>
			<path d="M825.5,264.8H257.8c-4.8,0-8.6-3.9-8.6-8.6s3.9-8.6,8.6-8.6h567.7c4.8,0,8.6,3.9,8.6,8.6
				C834.2,260.9,830.3,264.8,825.5,264.8z"/>
			<path d="M825.5,320.3H257.8c-4.8,0-8.6-3.9-8.6-8.6s3.9-8.6,8.6-8.6h567.7c4.8,0,8.6,3.9,8.6,8.6S830.3,320.3,825.5,320.3z"/>
			<path d="M469.1,375.6H257.8c-4.8,0-8.6-3.9-8.6-8.6s3.9-8.6,8.6-8.6h211.3c4.8,0,8.6,3.9,8.6,8.6S473.9,375.6,469.1,375.6z"/>
			<path d="M851.7,896.9H218.3c-41.6,0-75.4-33.8-75.4-75.4v-573c0-41.6,33.8-75.4,75.4-75.4h633.4c41.6,0,75.4,33.8,75.4,75.4v573
				C927.1,863.1,893.3,896.9,851.7,896.9z M218.3,190.4c-32.1,0-58.1,26.1-58.1,58.1v573c0,32.1,26.1,58.1,58.1,58.1h633.4
				c32.1,0,58.1-26.1,58.1-58.1v-573c0-32.1-26.1-58.1-58.1-58.1H218.3z"/>
			<path d="M379,760.3c-1.8,0-3.6-0.6-5.2-1.7L339.5,733c-3.6-2.7-4.5-7.7-2.1-11.5l31.4-50l-41-11.5c-3.2-0.9-5.6-3.6-6.2-6.9
				c-0.5-3.3,0.9-6.6,3.6-8.5l129.4-88.7c2.6-1.8,6.1-2,8.9-0.5c2.8,1.5,4.6,4.5,4.6,7.7l-0.7,156.8c0,3.3-1.9,6.3-4.9,7.8
				c-3,1.4-6.5,1-9.1-1.1l-36.7-29.6l-30.1,58.8c-1.2,2.3-3.2,3.9-5.7,4.5C380.3,760.2,379.6,760.3,379,760.3L379,760.3z
				 M356.2,723.9l19.7,14.7l30.3-59.2c1.2-2.3,3.4-4,5.9-4.5c2.5-0.5,5.2,0.1,7.2,1.7l31,25l0.6-122.4l-100.6,69l34.3,9.7
				c2.6,0.7,4.7,2.7,5.7,5.2c1,2.5,0.7,5.4-0.8,7.7L356.2,723.9L356.2,723.9z"/>
		</g>
	</g>
</g>
</svg>
