<?xml version="1.0" encoding="utf-8"?>
<!-- Generator: Adobe Illustrator 26.3.1, SVG Export Plug-In . SVG Version: 6.00 Build 0)  -->
<svg version="1.1" id="Layer_2_00000025417787935518305180000008418923068815976076_"
	 xmlns="http://www.w3.org/2000/svg" xmlns:xlink="http://www.w3.org/1999/xlink" x="0px" y="0px" viewBox="0 0 1070 1070"
	 style="enable-background:new 0 0 1070 1070;" xml:space="preserve">
<style type="text/css">
	.st0{fill:none;}
	.st1{fill:#0062C0;}
</style>
<g id="Capa_1">
	<g>
		<path class="st0" d="M50,0H1020c27.6,0,50,22.4,50,50V1020c0,27.6-22.4,50-50,50H50c-27.6,0-50-22.4-50-50V50C0,22.4,22.4,0,50,0z
			"/>
		<g>
			<path d="M376.5,535c-3.7,0-7.5-0.2-11.2-0.5c-35.2-2.9-67.1-19.4-89.9-46.4c-22.8-27-33.7-61.2-30.8-96.3
				c6.1-72.6,70.1-126.7,142.7-120.7c72.6,6.1,126.7,70.1,120.7,142.7l0,0c-2.9,35.2-19.4,67.1-46.4,89.9
				C437.5,524.1,407.6,535,376.5,535z M376.2,288c-59,0-109.4,45.4-114.4,105.3c-2.6,30.6,6.9,60.3,26.8,83.8
				c19.8,23.4,47.6,37.7,78.1,40.3c63.2,5.3,118.8-41.8,124-104.9s-41.8-118.8-104.9-124.1C382.6,288.1,379.4,288,376.2,288
				L376.2,288z M499.3,413.2L499.3,413.2z"/>
			<path d="M374,459.3c-20.9,0-40.7-7.7-56.1-21.9c-3.5-3.2-3.7-8.7-0.5-12.2s8.7-3.7,12.2-0.5c12.9,11.9,29.7,18.1,47.2,17.3
				c17.5-0.7,33.7-8.2,45.6-21.1c3.2-3.5,8.7-3.7,12.2-0.5c3.5,3.2,3.7,8.7,0.5,12.2c-15,16.3-35.5,25.8-57.6,26.7
				C376.3,459.3,375.2,459.3,374,459.3L374,459.3z"/>
			<path d="M307.5,799.3c-3.5,0-6.8-2.1-8.1-5.6L248,656.6c-2.5-6.9-8.1-12.1-15-14c-36.4-10.3-125-35.6-161.6-48.2
				C29.5,580,4.9,537.7,14.2,496c7.5-33.8,34.5-59.2,68.7-64.7l156.9-25.1c4.7-0.8,9.1,2.5,9.9,7.2c0.8,4.7-2.4,9.1-7.2,9.9
				L85.6,448.3c-27.2,4.4-48.6,24.5-54.6,51.4c-7.4,33.1,12.4,66.8,45.9,78.4c36.2,12.4,124.4,37.6,160.7,47.9
				c12.3,3.5,22.2,12.7,26.5,24.7l51.4,137c1.7,4.5-0.6,9.4-5,11.1C309.6,799.1,308.5,799.3,307.5,799.3L307.5,799.3z"/>
			<path d="M633.2,543.4c-1.3,0-2.7-0.3-4-1c-4.2-2.2-5.8-7.4-3.6-11.7l67.6-129c14.2-28.5,7.4-63.4-16.5-84.6
				c-18-16-42.7-21.8-66-15.4l-132.6,36.5c-4.6,1.3-9.4-1.4-10.6-6c-1.3-4.6,1.4-9.4,6-10.6l132.6-36.5c28.9-7.9,59.6-0.8,82,19.1
				c29.8,26.4,38.2,69.7,20.5,105.4l-67.6,129.2C639.3,541.7,636.3,543.4,633.2,543.4L633.2,543.4z"/>
			<path d="M317.4,520.1H199.6c-4.8,0-8.6-3.9-8.6-8.6s3.9-8.6,8.6-8.6h117.8c4.8,0,8.6,3.9,8.6,8.6S322.2,520.1,317.4,520.1z"/>
			<path d="M488.6,462.9c-3.1,0-6.2-1.7-7.7-4.7c-2.2-4.2-0.5-9.5,3.8-11.6l101-51.4c4.2-2.2,9.4-0.5,11.6,3.8
				c2.2,4.2,0.5,9.5-3.8,11.6l-101,51.4C491.2,462.6,489.9,462.9,488.6,462.9L488.6,462.9z"/>
			<path d="M558.5,799.3H160.8c-3.2,0-6.2-1.8-7.7-4.7l-39.4-77.3c-8.1-16-7.3-34.6,2.2-49.9s25.9-24.2,43.8-23.9l96.5,1.5
				c4.8,0.1,8.6,4,8.5,8.8c-0.1,4.8-4,8.6-8.8,8.5l-96.5-1.5c-0.2,0-0.4,0-0.5,0c-11.6,0-22.2,5.9-28.4,15.8
				c-6.3,10-6.8,22.3-1.4,32.9l37,72.6h392.4c4.8,0,8.6,3.9,8.6,8.6S563.3,799.3,558.5,799.3L558.5,799.3z"/>
			<g>
				<path class="st1" d="M980.1,368.2c0-40.3-32.8-73.1-73.1-73.1h-74.8c-40.3,0-73.1,32.8-73.1,73.1s32.8,73.1,73.1,73.1h60.5
					l28.3,40.9c1.7,2.5,4.5,3.8,7.3,3.7c1.6,0,3.2-0.4,4.6-1.2c1.7-1,3-2.5,3.7-4.4l20.8-56.4C973.5,410,980.1,389.6,980.1,368.2
					L980.1,368.2z M899.7,425.1c-2.1-0.7-4.3-1.1-6.6-1.1H833c-30.6,0-56.2-24.3-56.6-54.9c-0.5-31.2,24.7-56.7,55.8-56.7H907
					c30.8,0,55.8,25,55.8,55.8c0,17-11.1,34.2-18.6,42.9c-0.6,0.6-1.1,1.3-1.7,2c-2.8,3.3-4.9,7.1-6.1,11.2L926,459l-21-30.4
					C903.7,426.8,901.8,425.6,899.7,425.1L899.7,425.1z"/>
				<path class="st1" d="M961.8,456.7C961.8,456.7,961.8,456.7,961.8,456.7L961.8,456.7z"/>
			</g>
			<path class="st1" d="M862.4,402.5c-1.8,0-3.7-0.6-5.2-1.8l-23.8-18c-3.8-2.9-4.5-8.3-1.7-12.1c2.9-3.8,8.3-4.5,12.1-1.6
				l18.2,13.8l45.3-39.2c3.6-3.1,9.1-2.7,12.2,0.9s2.7,9.1-0.9,12.2L868,400.5C866.4,401.9,864.4,402.6,862.4,402.5L862.4,402.5z"/>
			<path d="M242.2,799.3c-3.5,0-6.8-2.1-8.1-5.6l-39-103.2c-6.6-17.5-23.7-29.3-42.4-29.3c-4.8,0-8.6-3.9-8.6-8.6s3.9-8.6,8.6-8.6
				c25.9,0,49.4,16.3,58.6,40.5l39,103.2c1.7,4.5-0.6,9.4-5,11.1C244.2,799.1,243.2,799.3,242.2,799.3L242.2,799.3z"/>
			<path d="M937.2,799.3H447.6c-9.2,0-18.1-3.9-24.4-10.6c-6.4-6.8-9.6-15.7-9-25.1c1.1-17.5,16.2-31.3,34.3-31.3h117.1L623.8,536
				c5.8-19.5,24.1-33.2,44.5-33.2h343.1c14.8,0,28.3,6.8,37.2,18.6c8.8,11.8,11.5,26.8,7.3,40.9l-56.7,190.6
				C991.1,780.3,965.6,799.3,937.2,799.3L937.2,799.3z M448.4,749.6c-9,0-16.5,6.6-17,15.1c-0.3,4.5,1.2,8.9,4.4,12.2
				c3.1,3.3,7.3,5.1,11.8,5.1h489.6c20.8,0,39.5-13.9,45.4-33.9l56.7-190.6c2.6-8.9,1-18.3-4.6-25.7c-5.6-7.4-14-11.7-23.3-11.7
				H668.3c-12.8,0-24.3,8.6-27.9,20.8l0,0l-60.2,202.5c-1.1,3.7-4.5,6.2-8.3,6.2H448.4L448.4,749.6z M632.1,538.5L632.1,538.5z"/>
			<path d="M828.2,696.9c-2.5,0-4.9-0.3-7.3-1c-19.2-5.2-28.8-29.1-22-54.2c3.1-11.5,9.3-21.5,17.5-28.2c8.9-7.3,19.4-10,29-7.4
				c19.2,5.2,28.8,29.1,22,54.2c-3.1,11.5-9.3,21.5-17.5,28.2C843.3,694,835.7,696.9,828.2,696.9z M838,622.4
				c-4.5,0-8.4,2.6-10.6,4.4c-5.3,4.4-9.6,11.5-11.8,19.4c-4.2,15.3,0.3,30.5,9.8,33c5.6,1.5,10.8-1.9,13.5-4.1
				c5.3-4.4,9.6-11.5,11.8-19.4l0,0c4.2-15.3-0.3-30.5-9.8-33C839.9,622.5,839,622.4,838,622.4L838,622.4z"/>
		</g>
	</g>
</g>
</svg>
