<?xml version="1.0" encoding="utf-8"?>
<!-- Generator: Adobe Illustrator 26.3.1, SVG Export Plug-In . SVG Version: 6.00 Build 0)  -->
<svg version="1.1" id="Layer_2_00000080203900019819033420000000368781937203564440_"
	 xmlns="http://www.w3.org/2000/svg" xmlns:xlink="http://www.w3.org/1999/xlink" x="0px" y="0px" viewBox="0 0 1070 1070"
	 style="enable-background:new 0 0 1070 1070;" xml:space="preserve">
<style type="text/css">
	.st0{fill:none;}
	.st1{fill:#0062C0;}
</style>
<g id="Capa_1">
	<g>
		<path class="st0" d="M50,0H1020c27.6,0,50,22.4,50,50V1020c0,27.6-22.4,50-50,50H50c-27.6,0-50-22.4-50-50V50C0,22.4,22.4,0,50,0z
			"/>
		<g>
			<g>
				<path d="M844.8,702.4H582c-4.8,0-8.6-3.9-8.6-8.6s3.9-8.6,8.6-8.6h262.8c28.4,0,51.6-23.1,51.6-51.6v-377
					c0-28.4-23.1-51.6-51.6-51.6H225.2c-28.4,0-51.6,23.1-51.6,51.6v377c0,28.4,23.1,51.6,51.6,51.6h142.1c4.8,0,8.6,3.9,8.6,8.6
					s-3.9,8.6-8.6,8.6H225.2c-38,0-68.8-30.9-68.8-68.8v-377c0-38,30.9-68.8,68.8-68.8h619.6c38,0,68.8,30.9,68.8,68.8v377
					C913.6,671.5,882.8,702.4,844.8,702.4L844.8,702.4z"/>
				<path d="M905,265.2H165c-4.8,0-8.6-3.9-8.6-8.6s3.9-8.6,8.6-8.6h740c4.8,0,8.6,3.9,8.6,8.6C913.6,261.3,909.8,265.2,905,265.2z"
					/>
				<path class="st1" d="M496.9,612.4h-61.4c-4.8,0-8.6-3.9-8.6-8.6s3.9-8.6,8.6-8.6h61.4c11.3,0,20.4-9.2,20.4-20.4
					s-9.2-20.4-20.4-20.4H299.6c-11.3,0-20.4,9.2-20.4,20.4s9.2,20.4,20.4,20.4h67.7c4.8,0,8.6,3.9,8.6,8.6s-3.9,8.6-8.6,8.6h-67.7
					c-20.8,0-37.7-16.9-37.7-37.7s16.9-37.7,37.7-37.7h197.2c20.8,0,37.7,16.9,37.7,37.7S517.7,612.4,496.9,612.4L496.9,612.4z"/>
				<path d="M525.9,510.8H280.7c-4.8,0-8.6-3.9-8.6-8.6V372.1c0-2,0.7-3.9,2-5.5l50.3-61c1.6-2,4.1-3.1,6.7-3.1h143
					c2.6,0,5,1.1,6.7,3.1l51.9,63c1.3,1.5,2,3.5,2,5.5v128.1C534.6,506.9,530.7,510.8,525.9,510.8L525.9,510.8z M289.3,493.5h228
					V377.2l-47.4-57.5H335l-45.7,55.5L289.3,493.5L289.3,493.5z"/>
				<path d="M525.9,382H382.3c-2.6,0-5-1.1-6.7-3.1l-51.4-62.3c-3-3.7-2.5-9.1,1.2-12.1c3.7-3,9.1-2.5,12.1,1.2l48.8,59.2h139.5
					c4.8,0,8.6,3.9,8.6,8.6S530.7,382,525.9,382L525.9,382z"/>
				<path d="M490.3,510.8h-74.2c-4.8,0-8.6-3.9-8.6-8.6v-71.6c0-4.8,3.9-8.6,8.6-8.6h74.2c4.8,0,8.6,3.9,8.6,8.6v71.6
					C499,506.9,495.1,510.8,490.3,510.8z M424.7,493.5h57v-54.3h-57V493.5z"/>
				<path d="M770.8,612.4H651.5c-43.1,0-78.2-35.1-78.2-78.2V380.6c0-43.1,35.1-78.2,78.2-78.2h119.3c43.1,0,78.2,35.1,78.2,78.2
					v153.6C849,577.3,814,612.4,770.8,612.4z M651.5,319.7c-33.6,0-60.9,27.3-60.9,60.9v153.6c0,33.6,27.3,60.9,60.9,60.9h119.3
					c33.6,0,60.9-27.3,60.9-60.9V380.6c0-33.6-27.3-60.9-60.9-60.9H651.5z"/>
				<path d="M800,382H617.1c-4.8,0-8.6-3.9-8.6-8.6s3.9-8.6,8.6-8.6H800c4.8,0,8.6,3.9,8.6,8.6S804.7,382,800,382z"/>
				<path d="M800,427.6H617.1c-4.8,0-8.6-3.9-8.6-8.6s3.9-8.6,8.6-8.6H800c4.8,0,8.6,3.9,8.6,8.6S804.7,427.6,800,427.6z"/>
				<path d="M800,475H617.1c-4.8,0-8.6-3.9-8.6-8.6s3.9-8.6,8.6-8.6H800c4.8,0,8.6,3.9,8.6,8.6S804.7,475,800,475z"/>
				<path d="M682.5,535.4h-65.3c-4.8,0-8.6-3.9-8.6-8.6s3.9-8.6,8.6-8.6h65.3c4.8,0,8.6,3.9,8.6,8.6S687.2,535.4,682.5,535.4z"/>
				<path d="M800,535.4h-58c-4.8,0-8.6-3.9-8.6-8.6s3.9-8.6,8.6-8.6h58c4.8,0,8.6,3.9,8.6,8.6S804.7,535.4,800,535.4z"/>
			</g>
			<path d="M604.7,882.3c-0.4,0-0.8,0-1.3-0.1c-4.7-0.7-8-5.1-7.3-9.8c2.9-19.8,4.4-39.9,4.4-59.9v-65c0-10.5-8.6-19-19.2-19
				s-19.2,8.5-19.2,19v37.2c0,4.8-3.9,8.6-8.6,8.6s-8.6-3.9-8.6-8.6v-64.8c0-10.5-8.6-19-19.2-19s-19.2,8.5-19.2,19v50
				c0,4.8-3.9,8.6-8.6,8.6s-8.6-3.9-8.6-8.6v-74.5c0-12.3-10-22.2-22.4-22.2s-22.4,10-22.4,22.2v67.1c0,4.8-3.9,8.6-8.6,8.6
				s-8.6-3.9-8.6-8.6V611.2c0-14-11.5-25.4-25.6-25.4s-25.6,11.4-25.6,25.4V792c0,3.4-2,6.5-5,7.8c-3.1,1.4-6.7,0.9-9.2-1.3
				l-22.9-19.8c-12.2-10.6-31-9.4-41.8,2.5c-10.8,11.9-10.2,30,1.4,41.2l37.4,35.9c3.4,3.3,3.5,8.8,0.2,12.2
				c-3.3,3.4-8.8,3.5-12.2,0.2l-37.4-35.9c-18.4-17.7-19.4-46.3-2.2-65.2c17.1-18.8,46.6-20.6,65.9-3.9l8.6,7.4V611.2
				c0-23.5,19.2-42.7,42.9-42.7s42.9,19.2,42.9,42.7v51.5c6.4-4.4,14.1-6.9,22.4-6.9c19.8,0,36.3,14.5,39.2,33.4
				c5.7-3.6,12.4-5.8,19.7-5.8c19.1,0,34.8,14.6,36.3,33.2c5.6-3.5,12.2-5.5,19.3-5.5c20.1,0,36.5,16.3,36.5,36.3v65
				c0,20.8-1.5,41.8-4.6,62.5C612.6,879.2,608.9,882.3,604.7,882.3L604.7,882.3z"/>
		</g>
	</g>
</g>
</svg>
