<?xml version="1.0" encoding="utf-8"?>
<!-- Generator: Adobe Illustrator 26.3.1, SVG Export Plug-In . SVG Version: 6.00 Build 0)  -->
<svg version="1.1" id="Layer_2_00000005267960026688500370000006115551874545676673_"
	 xmlns="http://www.w3.org/2000/svg" xmlns:xlink="http://www.w3.org/1999/xlink" x="0px" y="0px" viewBox="0 0 1070 1070"
	 style="enable-background:new 0 0 1070 1070;" xml:space="preserve">
<style type="text/css">
	.st0{fill:none;}
	.st1{fill:#0062C0;}
</style>
<g id="Capa_1">
	<g>
		<path class="st0" d="M50,0H1020c27.6,0,50,22.4,50,50V1020c0,27.6-22.4,50-50,50H50c-27.6,0-50-22.4-50-50V50C0,22.4,22.4,0,50,0z
			"/>
		<g>
			<path d="M827.6,791.7H252.2c-23.4,0-42.5-19.1-42.5-42.5V232.5c0-23.4,19.1-42.5,42.5-42.5h575.4c23.4,0,42.5,19.1,42.5,42.5
				v516.8C870.1,772.7,851,791.7,827.6,791.7z M252.2,207.2c-13.9,0-25.2,11.3-25.2,25.2v516.8c0,13.9,11.3,25.2,25.2,25.2h575.4
				c13.9,0,25.2-11.3,25.2-25.2V232.5c0-13.9-11.3-25.2-25.2-25.2H252.2z"/>
			<path class="st1" d="M920.2,534c-2.2,0-4.4-0.8-6.1-2.5c-3.4-3.4-3.4-8.8,0-12.2l27.3-27.3l-27.3-27.3c-3.4-3.4-3.4-8.8,0-12.2
				c3.4-3.4,8.8-3.4,12.2,0l33.4,33.4c1.6,1.6,2.5,3.8,2.5,6.1s-0.9,4.5-2.5,6.1l-33.4,33.4C924.7,533.1,922.4,533.9,920.2,534
				L920.2,534z"/>
			<path class="st1" d="M149.8,534c-2.2,0-4.4-0.8-6.1-2.5l-33.4-33.4c-1.6-1.6-2.5-3.8-2.5-6.1s0.9-4.5,2.5-6.1l33.4-33.4
				c3.4-3.4,8.8-3.4,12.2,0c3.4,3.4,3.4,8.8,0,12.2L128.6,492l27.3,27.3c3.4,3.4,3.4,8.8,0,12.2C154.2,533.1,152,534,149.8,534
				L149.8,534z"/>
			<path d="M218.3,714.7c-2.5,0-5-1.1-6.7-3.2c-3-3.7-2.4-9.1,1.3-12.1l186.4-150.8c1.5-1.2,3.5-1.9,5.4-1.9h135.2
				c4.8,0,8.6,3.9,8.6,8.6s-3.9,8.6-8.6,8.6H407.8L223.7,712.7C222.1,714,220.2,714.7,218.3,714.7L218.3,714.7z"/>
			<path d="M404.7,563.9c-4.8,0-8.6-3.9-8.6-8.6V198.6c0-4.8,3.9-8.6,8.6-8.6s8.6,3.9,8.6,8.6v356.7
				C413.3,560,409.5,563.9,404.7,563.9z"/>
			<path d="M861.5,385.6H584.6c-4.8,0-8.6-3.9-8.6-8.6V198.6c0-4.8,3.9-8.6,8.6-8.6s8.6,3.9,8.6,8.6v169.7h268.3
				c4.8,0,8.6,3.9,8.6,8.6S866.3,385.6,861.5,385.6L861.5,385.6z"/>
			<path d="M269.8,673c-4.8,0-8.6-3.9-8.6-8.6V342c0-3.1,1.7-6,4.4-7.5l92-51.1c2.7-1.5,5.9-1.5,8.6,0.1c2.6,1.5,4.2,4.4,4.2,7.4
				v294.3c0,4.8-3.9,8.6-8.6,8.6s-8.6-3.9-8.6-8.6V305.6l-74.7,41.5v317.2C278.5,669.1,274.6,673,269.8,673L269.8,673z"/>
			<path d="M621.3,657.8h-81.4c-4.8,0-8.6-3.9-8.6-8.6V507.4c0-2.3,0.9-4.5,2.5-6.1l69.5-69.5c1.6-1.6,3.8-2.5,6.1-2.5h252.1
				c4.8,0,8.6,3.9,8.6,8.6s-3.9,8.6-8.6,8.6H613l-64.5,64.5v129.6h64.2l0.3-38.5c0-4.7,3.9-8.5,8.6-8.5l239.8-0.5h0
				c4.8,0,8.6,3.8,8.6,8.6c0,4.8-3.8,8.6-8.6,8.7l-231.2,0.4l-0.3,38.6C629.9,654,626,657.8,621.3,657.8L621.3,657.8z"/>
			<path class="st1" d="M411.3,880c-16.6,0-30.1-13.5-30.1-30.1s13.5-30.1,30.1-30.1s30.1,13.5,30.1,30.1S427.9,880,411.3,880z
				 M411.3,837.1c-7.1,0-12.8,5.8-12.8,12.8s5.8,12.8,12.8,12.8s12.8-5.8,12.8-12.8S418.4,837.1,411.3,837.1z"/>
			<path class="st1" d="M541.5,880c-16.6,0-30.1-13.5-30.1-30.1s13.5-30.1,30.1-30.1s30.1,13.5,30.1,30.1S558.1,880,541.5,880z
				 M541.5,837.1c-7.1,0-12.8,5.8-12.8,12.8s5.8,12.8,12.8,12.8s12.8-5.8,12.8-12.8S548.5,837.1,541.5,837.1z"/>
			<path class="st1" d="M668.4,880c-16.6,0-30.1-13.5-30.1-30.1s13.5-30.1,30.1-30.1s30.1,13.5,30.1,30.1S685,880,668.4,880z
				 M668.4,837.1c-7.1,0-12.8,5.8-12.8,12.8s5.8,12.8,12.8,12.8s12.8-5.8,12.8-12.8S675.5,837.1,668.4,837.1z"/>
		</g>
	</g>
</g>
</svg>
