<svg xmlns="http://www.w3.org/2000/svg" id="Capa_1" data-name="Capa 1" viewBox="0 0 2501.28 577.02"><defs><style>.cls-3{stroke-width:0;fill:#fff}</style></defs><rect width="2501.28" height="577.02" rx="288.51" ry="288.51" style="stroke-width:0"/><path d="M352.47 79.31c-115.54 0-209.2 93.66-209.2 209.2 0 115.54 93.66 209.2 209.2 209.2h133.44V79.31H352.47Z" class="cls-3"/><circle cx="590.51" cy="393.11" r="104.6" class="cls-3"/><path d="M817.19 52.36h12.56v472.3h-12.56zM1086.63 215.3c4.85 5.76 7.27 12.97 7.27 21.63 0 11.12-3.85 20.01-11.54 26.67-7.7 6.66-18.2 9.99-31.52 9.99h-61.3V137.8h56.64c13.06 0 23.44 3.2 31.13 9.6 7.69 6.4 11.54 14.91 11.54 25.51 0 7.37-1.97 13.68-5.92 18.91-3.95 5.24-9.54 9.15-16.78 11.74 8.79 2.07 15.62 5.98 20.46 11.74Zm-80.02-61.98v43.06h39.57c8.27 0 14.55-1.87 18.82-5.62s6.4-9.05 6.4-15.91-2.13-12.15-6.4-15.91c-4.27-3.75-10.54-5.63-18.82-5.63h-39.57Zm63.04 98.64c4.27-4.07 6.4-9.73 6.4-16.97s-2.13-12.9-6.4-16.97-10.54-6.11-18.82-6.11h-44.23v46.17h44.23c8.27 0 14.55-2.04 18.82-6.11ZM1170.72 175.24v14.35a62.84 62.84 0 0 0-8.54-.58c-9.57 0-17.01 2.85-22.31 8.54-5.3 5.69-7.95 14.29-7.95 25.8v50.24h-16.29v-98.15h16.29v18.43c2.2-6.33 5.92-11.25 11.15-14.74 5.24-3.49 11.48-5.24 18.72-5.24 3.36 0 6.33.45 8.92 1.36ZM1198.46 269.32c-7.63-4.66-13.55-10.96-17.75-18.91-4.2-7.95-6.3-16.58-6.3-25.9s2.1-17.94 6.3-25.9c4.2-7.95 10.12-14.26 17.75-18.91 7.63-4.66 16.42-6.98 26.38-6.98s18.75 2.33 26.38 6.98c7.63 4.66 13.54 10.96 17.75 18.91 4.2 7.95 6.3 16.58 6.3 25.9s-2.1 17.94-6.3 25.9c-4.2 7.95-10.12 14.26-17.75 18.91-7.63 4.66-16.42 6.98-26.38 6.98s-18.75-2.33-26.38-6.98Zm50.53-18.43c6.14-6.85 9.21-15.65 9.21-26.38s-3.07-19.53-9.21-26.38c-6.14-6.85-14.19-10.28-24.15-10.28s-18.01 3.43-24.15 10.28c-6.14 6.86-9.21 15.65-9.21 26.38s3.07 19.53 9.21 26.38c6.14 6.86 14.19 10.28 24.15 10.28s18.01-3.42 24.15-10.28ZM1327.45 229.17h-15.71v44.42h-16.29V131.6h16.29v83.22h16.29l34.14-39.38h19.01l-40.35 46.55 41.12 51.6h-19.01l-35.5-44.42ZM1479.34 229.56h-78.56c.9 9.83 4.43 17.55 10.57 23.18 6.14 5.62 14 8.44 23.57 8.44 12.67 0 23.08-5.11 31.23-15.32l11.06 9.31c-4.79 6.73-10.83 11.93-18.14 15.62-7.31 3.69-15.49 5.53-24.54 5.53-9.83 0-18.56-2.17-26.19-6.5-7.63-4.33-13.58-10.41-17.85-18.23-4.27-7.82-6.4-16.78-6.4-26.87s2.07-18.88 6.21-26.77c4.14-7.89 9.92-14.06 17.36-18.52 7.44-4.46 15.94-6.69 25.51-6.69 9.05 0 17.13 2.01 24.25 6.01 7.11 4.01 12.64 9.67 16.59 16.97 3.94 7.31 5.92 15.68 5.92 25.12a67 67 0 0 1-.58 8.73Zm-67.6-34.04c-5.63 5.11-9.15 12.06-10.57 20.85h62.07c-.78-9.05-3.85-16.07-9.21-21.05-5.37-4.98-12.32-7.47-20.85-7.47s-15.81 2.56-21.43 7.66ZM1554.79 175.24v14.35a62.84 62.84 0 0 0-8.54-.58c-9.57 0-17.01 2.85-22.31 8.54-5.3 5.69-7.95 14.29-7.95 25.8v50.24h-16.29v-98.15h16.29v18.43c2.2-6.33 5.92-11.25 11.15-14.74 5.24-3.49 11.48-5.24 18.72-5.24 3.36 0 6.33.45 8.92 1.36ZM1635.58 266.9c-10.54-6.27-18.75-14.77-24.63-25.51-5.89-10.73-8.83-22.63-8.83-35.69s2.94-24.96 8.83-35.69c5.88-10.73 14.09-19.23 24.63-25.51 10.54-6.27 22.53-9.41 35.98-9.41s25.44 3.14 35.98 9.41c10.54 6.27 18.75 14.78 24.64 25.51 5.88 10.74 8.83 22.63 8.83 35.69s-2.94 24.96-8.83 35.69c-5.89 10.74-14.1 19.24-24.64 25.51-10.54 6.27-22.54 9.41-35.98 9.41s-25.44-3.13-35.98-9.41Zm62.85-13.58c7.82-4.72 13.9-11.25 18.23-19.59s6.5-17.68 6.5-28.03-2.17-19.69-6.5-28.03-10.41-14.87-18.23-19.59c-7.83-4.72-16.78-7.08-26.87-7.08s-19.04 2.36-26.87 7.08c-7.83 4.72-13.9 11.25-18.23 19.59s-6.5 17.69-6.5 28.03 2.16 19.69 6.5 28.03c4.33 8.34 10.41 14.87 18.23 19.59 7.82 4.72 16.78 7.08 26.87 7.08s19.04-2.36 26.87-7.08ZM1771.27 189.4h-20.17v-13.97h20.17v-14.94c0-10.6 2.49-18.36 7.47-23.28 4.98-4.91 12.64-7.37 22.99-7.37 4.91 0 9.89.58 14.94 1.75v13.77c-4.66-.9-8.92-1.36-12.8-1.36-5.69 0-9.83 1.33-12.41 3.98-2.59 2.65-3.88 6.95-3.88 12.9v14.55h28.71v13.97h-28.71v84.19h-16.29V189.4ZM1830.14 151.68c-2.13-2.13-3.2-4.82-3.2-8.05s1.07-5.92 3.2-8.05 4.82-3.2 8.05-3.2 5.92 1.07 8.05 3.2 3.2 4.82 3.2 8.05-1.07 5.92-3.2 8.05-4.82 3.2-8.05 3.2-5.92-1.07-8.05-3.2Zm-.1 23.76h16.29v98.15h-16.29v-98.15ZM1890.85 269.62c-7.7-4.46-13.64-10.6-17.85-18.43-4.2-7.82-6.3-16.71-6.3-26.67s2.1-18.85 6.3-26.67c4.2-7.82 10.15-13.97 17.85-18.43 7.69-4.46 16.46-6.69 26.28-6.69 9.05 0 17.13 1.84 24.25 5.53 7.11 3.69 12.74 8.96 16.88 15.81l-12.8 8.92c-2.98-4.91-6.89-8.66-11.74-11.25-4.85-2.58-10.31-3.88-16.39-3.88-9.96 0-18.04 3.36-24.25 10.09-6.21 6.73-9.31 15.58-9.31 26.58s3.1 19.85 9.31 26.58c6.21 6.73 14.29 10.09 24.25 10.09 6.08 0 11.54-1.29 16.39-3.88 4.85-2.59 8.76-6.33 11.74-11.25l12.8 8.92c-4.14 6.86-9.77 12.12-16.88 15.81-7.11 3.69-15.2 5.53-24.25 5.53-9.83 0-18.59-2.23-26.28-6.69ZM1975.24 151.68c-2.13-2.13-3.2-4.82-3.2-8.05s1.07-5.92 3.2-8.05 4.82-3.2 8.05-3.2 5.92 1.07 8.05 3.2 3.2 4.82 3.2 8.05-1.07 5.92-3.2 8.05-4.82 3.2-8.05 3.2-5.92-1.07-8.05-3.2Zm-.1 23.76h16.29v98.15h-16.29v-98.15ZM2111.12 175.44v98.15h-16.29v-18.04c-2.85 6.34-7.54 11.38-14.06 15.13-6.53 3.75-13.94 5.63-22.21 5.63-8.92 0-16.94-2.2-24.05-6.6-7.11-4.39-12.68-10.5-16.68-18.33-4.01-7.82-6.01-16.78-6.01-26.87s2-19.04 6.01-26.87c4.01-7.82 9.57-13.93 16.68-18.33 7.11-4.39 15.13-6.59 24.05-6.59 8.27 0 15.68 1.88 22.21 5.62 6.53 3.75 11.22 8.8 14.06 15.13v-18.04h16.29Zm-24.73 75.46c6.14-6.85 9.21-15.65 9.21-26.38s-3.07-19.53-9.21-26.38c-6.14-6.85-14.19-10.28-24.15-10.28s-18.01 3.43-24.15 10.28c-6.14 6.86-9.21 15.65-9.21 26.38s3.07 19.53 9.21 26.38c6.14 6.86 14.19 10.28 24.15 10.28s18.01-3.42 24.15-10.28ZM2138.27 131.6h16.29v141.99h-16.29V131.6ZM1012.8 415.26c-7.32-4.37-13.03-10.32-17.12-17.87-4.09-7.55-6.14-15.96-6.14-25.23s2.07-17.68 6.21-25.23c4.14-7.55 9.86-13.5 17.18-17.87 7.32-4.36 15.57-6.55 24.76-6.55s17.19 2.09 24.55 6.27c7.37 4.18 13.05 10.28 17.05 18.28l-9.96 5.73c-6.64-12.73-16.91-19.09-30.82-19.09-7.18 0-13.53 1.64-19.03 4.91-5.5 3.27-9.78 7.84-12.82 13.71-3.05 5.86-4.57 12.48-4.57 19.84s1.52 13.98 4.57 19.85c3.04 5.86 7.32 10.43 12.82 13.71 5.5 3.27 11.84 4.91 19.03 4.91s12.87-1.57 18.14-4.71c5.27-3.14 9.59-7.93 12.96-14.39l9.68 5.73c-4 8-9.68 14.1-17.05 18.28-7.37 4.18-15.55 6.27-24.55 6.27s-17.57-2.18-24.89-6.55ZM1155.66 350.88v69.01h-11.46v-12.68c-2 4.46-5.3 8-9.89 10.64-4.59 2.64-9.8 3.95-15.62 3.95-6.27 0-11.91-1.55-16.91-4.64s-8.91-7.39-11.73-12.89c-2.82-5.5-4.23-11.8-4.23-18.89s1.41-13.39 4.23-18.89c2.82-5.5 6.73-9.8 11.73-12.89s10.64-4.64 16.91-4.64c5.82 0 11.02 1.32 15.62 3.95 4.59 2.64 7.89 6.19 9.89 10.64v-12.68h11.46Zm-17.39 53.06c4.32-4.82 6.48-11 6.48-18.55s-2.16-13.73-6.48-18.55-9.98-7.23-16.98-7.23-12.66 2.41-16.98 7.23-6.48 11-6.48 18.55 2.16 13.73 6.48 18.55 9.98 7.23 16.98 7.23 12.66-2.41 16.98-7.23ZM1228.7 353.61c4.95 3.09 8.84 7.39 11.66 12.89 2.82 5.5 4.23 11.8 4.23 18.89s-1.41 13.39-4.23 18.89c-2.82 5.5-6.71 9.8-11.66 12.89-4.96 3.09-10.57 4.64-16.84 4.64-5.82 0-11.03-1.32-15.62-3.95-4.59-2.64-7.93-6.18-10.02-10.64v39.96h-11.46v-96.29h11.46v12.68c2.09-4.45 5.43-8 10.02-10.64 4.59-2.64 9.8-3.95 15.62-3.95 6.27 0 11.89 1.55 16.84 4.64Zm-2.59 50.33c4.32-4.82 6.48-11 6.48-18.55s-2.16-13.73-6.48-18.55-9.98-7.23-16.98-7.23-12.66 2.41-16.98 7.23-6.48 11-6.48 18.55 2.16 13.73 6.48 18.55 9.98 7.23 16.98 7.23 12.66-2.41 16.98-7.23ZM1258.98 334.17c-1.5-1.5-2.25-3.39-2.25-5.66s.75-4.16 2.25-5.66 3.39-2.25 5.66-2.25 4.16.75 5.66 2.25 2.25 3.39 2.25 5.66-.75 4.16-2.25 5.66-3.39 2.25-5.66 2.25-4.16-.75-5.66-2.25Zm-.07 16.71h11.46v69.01h-11.46v-69.01ZM1300.03 416.21c-3.59-3.18-5.39-7.86-5.39-14.05V360.7h-13.78v-9.82h13.78v-20.46h11.46v20.46h21.69v9.82h-21.69v40.64c0 3.37.89 5.8 2.66 7.3s4.61 2.25 8.52 2.25c3.18 0 6.77-.41 10.77-1.23v9.55c-3.91 1.18-8.05 1.77-12.41 1.77-6.82 0-12.02-1.59-15.62-4.77ZM1403.62 350.88v69.01h-11.46v-12.68c-2 4.46-5.3 8-9.89 10.64-4.59 2.64-9.8 3.95-15.62 3.95-6.27 0-11.91-1.55-16.91-4.64s-8.91-7.39-11.73-12.89c-2.82-5.5-4.23-11.8-4.23-18.89s1.41-13.39 4.23-18.89c2.82-5.5 6.73-9.8 11.73-12.89s10.64-4.64 16.91-4.64c5.82 0 11.02 1.32 15.62 3.95 4.59 2.64 7.89 6.19 9.89 10.64v-12.68h11.46Zm-17.39 53.06c4.32-4.82 6.48-11 6.48-18.55s-2.16-13.73-6.48-18.55-9.98-7.23-16.98-7.23-12.66 2.41-16.98 7.23-6.48 11-6.48 18.55 2.16 13.73 6.48 18.55 9.98 7.23 16.98 7.23 12.66-2.41 16.98-7.23ZM1422.71 320.06h11.46v99.84h-11.46v-99.84ZM1453.46 334.17c-1.5-1.5-2.25-3.39-2.25-5.66s.75-4.16 2.25-5.66 3.39-2.25 5.66-2.25 4.16.75 5.66 2.25 2.25 3.39 2.25 5.66-.75 4.16-2.25 5.66-3.39 2.25-5.66 2.25-4.16-.75-5.66-2.25Zm-.07 16.71h11.46v69.01h-11.46v-69.01ZM1533.73 409.8v10.09h-55.1v-8.73l40.37-50.19h-39.28v-10.09h53.46v8.73l-40.37 50.19h40.92ZM1610.65 350.88v69.01h-11.46v-12.68c-2 4.46-5.3 8-9.89 10.64-4.59 2.64-9.8 3.95-15.62 3.95-6.27 0-11.91-1.55-16.91-4.64s-8.91-7.39-11.73-12.89c-2.82-5.5-4.23-11.8-4.23-18.89s1.41-13.39 4.23-18.89c2.82-5.5 6.73-9.8 11.73-12.89s10.64-4.64 16.91-4.64c5.82 0 11.02 1.32 15.62 3.95 4.59 2.64 7.89 6.19 9.89 10.64v-12.68h11.46Zm-17.39 53.06c4.32-4.82 6.48-11 6.48-18.55s-2.16-13.73-6.48-18.55-9.98-7.23-16.98-7.23-12.66 2.41-16.98 7.23-6.48 11-6.48 18.55 2.16 13.73 6.48 18.55 9.98 7.23 16.98 7.23 12.66-2.41 16.98-7.23ZM1668.48 350.74v10.09c-2-.27-4-.41-6-.41-6.73 0-11.96 2-15.68 6-3.73 4-5.59 10.05-5.59 18.14v35.33h-11.46v-69.01h11.46v12.96c1.55-4.45 4.16-7.91 7.84-10.37s8.07-3.68 13.16-3.68c2.36 0 4.45.32 6.27.95ZM1776.98 355.86c4.04 4.59 6.07 11.12 6.07 19.57v44.46h-11.46v-41.73c0-6.46-1.16-11.16-3.48-14.12-2.32-2.95-6.02-4.43-11.11-4.43-5.91 0-10.73 1.75-14.46 5.25-3.73 3.5-5.59 8.16-5.59 13.98v41.05h-11.46v-41.73c0-6.46-1.16-11.16-3.48-14.12-2.32-2.95-6.02-4.43-11.12-4.43-5.91 0-10.73 1.75-14.46 5.25-3.73 3.5-5.59 8.16-5.59 13.98v41.05h-11.46v-69.01h11.46v11.59c1.91-4.27 4.86-7.59 8.87-9.96 4-2.36 8.64-3.55 13.91-3.55s9.75 1.23 13.43 3.68 6.34 6 7.98 10.64c1.82-4.37 4.89-7.84 9.21-10.43 4.32-2.59 9.39-3.89 15.21-3.89 7.64 0 13.48 2.3 17.53 6.89ZM1863.65 388.93h-55.24c.64 6.91 3.11 12.34 7.43 16.3 4.32 3.96 9.84 5.93 16.57 5.93 8.91 0 16.23-3.59 21.96-10.77l7.77 6.55c-3.37 4.73-7.62 8.39-12.75 10.98-5.14 2.59-10.89 3.89-17.25 3.89-6.91 0-13.05-1.52-18.41-4.57-5.37-3.05-9.55-7.32-12.55-12.82s-4.5-11.8-4.5-18.89 1.45-13.27 4.36-18.82c2.91-5.55 6.98-9.89 12.21-13.02 5.23-3.14 11.21-4.71 17.94-4.71 6.36 0 12.05 1.41 17.05 4.23 5 2.82 8.89 6.8 11.66 11.93 2.77 5.14 4.16 11.03 4.16 17.66 0 2-.14 4.05-.41 6.14Zm-47.53-23.94c-3.96 3.59-6.43 8.48-7.43 14.66h43.64c-.55-6.36-2.71-11.3-6.48-14.8-3.77-3.5-8.66-5.25-14.66-5.25s-11.11 1.8-15.07 5.39ZM1873.4 418.67c-1.5-1.55-2.25-3.55-2.25-6s.75-4.3 2.25-5.8 3.48-2.25 5.93-2.25 4.43.75 5.93 2.25 2.25 3.43 2.25 5.8-.75 4.46-2.25 6-3.48 2.32-5.93 2.32-4.43-.77-5.93-2.32ZM1911.86 417.1c-5.41-3.14-9.59-7.45-12.55-12.96-2.96-5.5-4.43-11.75-4.43-18.75s1.48-13.25 4.43-18.75c2.95-5.5 7.14-9.82 12.55-12.96 5.41-3.14 11.57-4.71 18.48-4.71 6.36 0 12.05 1.3 17.05 3.89s8.96 6.3 11.87 11.12l-9 6.27c-2.09-3.45-4.84-6.09-8.25-7.91-3.41-1.82-7.25-2.73-11.53-2.73-7 0-12.68 2.37-17.05 7.09-4.37 4.73-6.55 10.96-6.55 18.69s2.18 13.96 6.55 18.68c4.36 4.73 10.05 7.09 17.05 7.09 4.27 0 8.12-.91 11.53-2.73 3.41-1.82 6.16-4.45 8.25-7.91l9 6.27c-2.91 4.82-6.87 8.52-11.87 11.12-5 2.59-10.68 3.89-17.05 3.89-6.91 0-13.07-1.57-18.48-4.71ZM1982.72 416.89c-5.37-3.27-9.53-7.71-12.48-13.3-2.96-5.59-4.43-11.66-4.43-18.21s1.48-12.62 4.43-18.21c2.95-5.59 7.11-10.02 12.48-13.3 5.36-3.27 11.55-4.91 18.55-4.91s13.18 1.64 18.55 4.91c5.36 3.27 9.52 7.71 12.48 13.3 2.95 5.59 4.43 11.66 4.43 18.21s-1.48 12.62-4.43 18.21c-2.96 5.59-7.12 10.02-12.48 13.3-5.37 3.27-11.55 4.91-18.55 4.91s-13.19-1.64-18.55-4.91Zm35.53-12.96c4.32-4.82 6.48-11 6.48-18.55s-2.16-13.73-6.48-18.55-9.98-7.23-16.98-7.23-12.66 2.41-16.98 7.23-6.48 11-6.48 18.55 2.16 13.73 6.48 18.55 9.98 7.23 16.98 7.23 12.66-2.41 16.98-7.23ZM2148.5 355.86c4.04 4.59 6.07 11.12 6.07 19.57v44.46h-11.46v-41.73c0-6.46-1.16-11.16-3.48-14.12-2.32-2.95-6.02-4.43-11.11-4.43-5.91 0-10.73 1.75-14.46 5.25-3.73 3.5-5.59 8.16-5.59 13.98v41.05h-11.46v-41.73c0-6.46-1.16-11.16-3.48-14.12-2.32-2.95-6.02-4.43-11.12-4.43-5.91 0-10.73 1.75-14.46 5.25-3.73 3.5-5.59 8.16-5.59 13.98v41.05h-11.46v-69.01h11.46v11.59c1.91-4.27 4.86-7.59 8.87-9.96 4-2.36 8.64-3.55 13.91-3.55s9.75 1.23 13.43 3.68c3.68 2.46 6.34 6 7.98 10.64 1.82-4.37 4.89-7.84 9.21-10.43 4.32-2.59 9.39-3.89 15.21-3.89 7.64 0 13.48 2.3 17.53 6.89Z" class="cls-3"/></svg>